<?xml version="1.0" encoding="UTF-8" standalone="no"?>
<!-- Created with Inkscape (http://www.inkscape.org/) -->

<svg
   xmlns:dc="http://purl.org/dc/elements/1.1/"
   xmlns:cc="http://creativecommons.org/ns#"
   xmlns:rdf="http://www.w3.org/1999/02/22-rdf-syntax-ns#"
   xmlns:svg="http://www.w3.org/2000/svg"
   xmlns="http://www.w3.org/2000/svg"
   xmlns:xlink="http://www.w3.org/1999/xlink"
   xmlns:sodipodi="http://sodipodi.sourceforge.net/DTD/sodipodi-0.dtd"
   xmlns:inkscape="http://www.inkscape.org/namespaces/inkscape"
   width="210mm"
   height="297mm"
   viewBox="0 0 744.09448819 1052.3622047"
   id="svg2"
   version="1.1"
   inkscape:version="0.91 r13725"
   sodipodi:docname="favicon.svg">
  <defs
     id="defs4">
    <linearGradient
       inkscape:collect="always"
       id="linearGradient4200">
      <stop
         style="stop-color:#38429b;stop-opacity:0.81176472"
         offset="0"
         id="stop4202" />
      <stop
         style="stop-color:#ffff00;stop-opacity:1"
         offset="1"
         id="stop4204" />
    </linearGradient>
    <linearGradient
       inkscape:collect="always"
       xlink:href="#linearGradient4200"
       id="linearGradient4206"
       x1="646.40002"
       y1="747.56812"
       x2="100.74281"
       y2="376.1395"
       gradientUnits="userSpaceOnUse" />
  </defs>
  <sodipodi:namedview
     id="base"
     pagecolor="#ffffff"
     bordercolor="#666666"
     borderopacity="1.0"
     inkscape:pageopacity="0.0"
     inkscape:pageshadow="2"
     inkscape:zoom="0.7"
     inkscape:cx="673.37969"
     inkscape:cy="719.07857"
     inkscape:document-units="px"
     inkscape:current-layer="layer1"
     showgrid="false"
     inkscape:window-width="2560"
     inkscape:window-height="1377"
     inkscape:window-x="-8"
     inkscape:window-y="-8"
     inkscape:window-maximized="1" />
  <metadata
     id="metadata7">
    <rdf:RDF>
      <cc:Work
         rdf:about="">
        <dc:format>image/svg+xml</dc:format>
        <dc:type
           rdf:resource="http://purl.org/dc/dcmitype/StillImage" />
        <dc:title></dc:title>
      </cc:Work>
    </rdf:RDF>
  </metadata>
  <g
     inkscape:label="Livello 1"
     inkscape:groupmode="layer"
     id="layer1">
    <g
       id="g4218"
       transform="translate(-4.2857143,-35.714286)">
      <g
         transform="matrix(2.6292834,0,0,2.6292834,-637.67779,-588.01801)"
         id="g3358">
        <path
           inkscape:connector-curvature="0"
           id="path3374"
           d="m 282.74158,432.07769 0,-67.4692 104.77875,0 104.77875,0 0,67.4692 0,67.4692 -104.77875,0 -104.77875,0 0,-67.4692 z"
           style="fill:#fdfdfd" />
        <path
           inkscape:connector-curvature="0"
           id="path3372"
           d="m 367.58104,498.71505 c -0.46106,-0.58828 -0.86046,-2.06706 -0.86046,-3.18586 0,-3.47459 5.18457,-8.63075 12.07098,-12.00484 2.41949,-1.18546 3.69542,-1.4232 3.95852,-0.73758 0.19931,0.51941 -0.54116,1.32665 -1.41903,1.54699 -1.87382,0.47029 -7.21371,4.90739 -9.52455,7.91426 -1.63783,2.13116 -2.57402,4.1065 -2.59666,5.47889 -0.0175,1.0589 -0.0831,1.17741 -0.69154,1.24813 -0.36973,0.043 -0.7915,-0.074 -0.93726,-0.25999 z m 11.93712,-0.2767 c -2.84934,-3.03298 -1.21059,-8.00328 4.3929,-13.32361 3.04359,-2.88978 8.38393,-6.10015 9.53805,-5.73385 1.20624,0.38285 0.75423,1.75368 -0.67713,2.05353 -2.02001,0.42317 -6.03424,4.00391 -8.30109,7.40466 -2.06911,3.10409 -3.00715,5.4645 -3.06712,7.71785 -0.0266,1.00098 -0.0653,1.96622 -0.0859,2.14497 -0.0617,0.53525 -1.20681,0.36756 -1.7997,-0.26355 z m -26.83741,-6.40497 c -4.01603,-0.88796 -7.27992,-2.4659 -7.27992,-3.5195 0,-0.91069 0.65633,-0.99651 2.04956,-0.26802 0.68532,0.35835 2.09743,0.82906 3.13803,1.04603 4.23243,0.88249 8.02834,-0.42488 15.39271,-5.3015 4.40702,-2.91829 6.09628,-3.77818 8.79803,-4.47851 2.47084,-0.64047 3.38128,-0.53415 3.38128,0.39485 0,0.76173 -0.12376,0.84563 -1.94865,1.32096 -2.70663,0.70498 -4.23832,1.66814 -10.2712,6.45869 -5.49819,4.36596 -8.58993,5.37954 -13.25984,4.347 z m -10.8171,-6.48684 c -4.02039,-1.39956 -7.90268,-3.79707 -7.90268,-4.88029 0,-0.87326 0.68946,-0.80654 3.1512,0.30496 5.53742,2.50022 11.72758,2.13163 21.28851,-1.26763 8.105,-2.88162 12.14985,-3.54688 11.91288,-1.95934 -0.07,0.46895 -0.45024,0.64549 -2.423,1.12497 -2.9786,0.72395 -7.84883,2.53966 -12.3442,4.60213 -4.00788,1.83881 -7.57511,2.81912 -10.2334,2.81223 -0.79287,-0.002 -2.20445,-0.30368 -3.44931,-0.73703 z m 42.19006,-3.85277 c -0.40739,-0.40739 -0.11089,-1.11257 0.74098,-1.76232 1.70588,-1.30114 3.844,-2.01939 11.30554,-3.79784 6.58681,-1.56997 11.78256,-3.77065 16.6398,-7.04787 2.53943,-1.71337 7.84063,-6.18991 11.44368,-9.66346 6.1535,-5.93235 9.47025,-8.32267 14.04299,-10.12053 1.96679,-0.77328 2.06502,-0.84691 1.41768,-1.0627 -0.45174,-0.15057 -0.92465,-0.12745 -1.34919,0.066 -0.97243,0.44307 -1.33831,-0.011 -1.33831,-1.66094 0,-1.56723 -0.48398,-2.71029 -1.69123,-3.99432 -2.4303,-2.58487 -4.47093,-2.52394 -14.46572,0.43191 -3.64446,1.0778 -6.19845,1.61804 -8.70989,1.84237 -2.14313,0.19143 -2.03466,0.35241 0.45499,0.67521 1.07444,0.1393 1.23499,0.23893 1.23499,0.76636 0,1.76706 -4.55764,0.9289 -9.17157,-1.68668 -6.04569,-3.42722 -11.25542,-8.599 -16.49136,-16.37122 -0.72251,-1.07248 -1.50732,-2.30097 -1.74403,-2.72996 -0.23671,-0.429 -0.79314,-1.36499 -1.23651,-2.07998 -0.44337,-0.71499 -2.15364,-3.93245 -3.8006,-7.14991 -8.5488,-16.7007 -11.72576,-20.64471 -18.86163,-23.41557 -2.57609,-1.0003 -8.62587,-2.27195 -13.43353,-2.8237 -4.35924,-0.50029 -13.12085,-1.8834 -15.95832,-2.51919 -9.67574,-2.16804 -13.95283,-4.11835 -27.59116,-12.58127 -5.35656,-3.32388 -11.93564,-4.99158 -14.86432,-3.7679 -1.02856,0.42976 -1.64548,0.18854 -1.64548,-0.64337 0,-0.88493 2.65605,-2.51916 4.50653,-2.77279 2.18688,-0.29975 4.11129,0.32952 9.6633,3.15985 2.85996,1.45797 5.95457,3.09622 6.8769,3.64056 2.3743,1.40126 9.20152,4.63329 12.88286,6.09879 9.63504,3.83562 16.55082,5.63227 29.63965,7.70011 6.50659,1.02794 8.05463,1.35538 11.69986,2.47473 4.1154,1.26373 7.0027,2.7716 9.19676,4.80296 3.12554,2.89378 4.00821,4.38468 9.78139,16.52164 6.27741,13.19699 11.22631,20.74502 17.71766,27.02284 1.26705,1.22536 3.10693,2.79548 4.08864,3.48914 1.56313,1.1045 1.81511,1.20726 2.02789,0.82703 0.18627,-0.33285 0.61964,-0.43418 1.85687,-0.43418 1.83664,0 4.47118,-0.67662 9.54014,-2.45015 8.28454,-2.89861 12.86168,-2.9994 16.92569,-0.3727 1.55782,1.00687 3.35316,3.30791 3.71938,4.76704 0.12479,0.49721 0.58473,0.84559 1.90922,1.44615 2.05313,0.93093 2.92541,1.67472 2.92541,2.49447 0,0.47903 -0.21424,0.65201 -1.10499,0.89223 -5.01581,1.35268 -5.70204,1.64053 -8.65293,3.6296 -2.24331,1.51212 -4.26823,3.43097 -10.06124,9.53421 -6.67156,7.02883 -10.26085,9.89364 -15.48028,12.35563 -3.63011,1.71232 -7.45887,2.66073 -13.34544,3.30574 -5.46476,0.5988 -7.95164,1.24522 -9.13265,2.37384 -0.7483,0.71513 -1.71334,0.98524 -2.10842,0.59015 z m -50.70244,-5.76207 c -0.68939,-0.76177 -0.42751,-2.03097 0.58717,-2.84576 2.32749,-1.86899 6.30881,-2.6042 15.88234,-2.93289 11.28914,-0.38761 15.63965,-1.00285 20.40976,-2.88632 6.15996,-2.43225 9.9852,-5.16417 13.65908,-9.75507 1.56991,-1.96177 3.44994,-5.17934 3.73321,-6.3892 0.18955,-0.80956 0.92795,-0.96303 1.4731,-0.30617 0.28342,0.3415 0.22017,0.78035 -0.38413,2.66497 -1.27672,3.9817 -2.73967,6.27641 -6.25913,9.81775 -4.1988,4.22492 -6.98456,5.99429 -12.19054,7.7428 -4.92148,1.65296 -13.00697,2.4813 -19.61704,2.00974 -6.07397,-0.43333 -9.44567,-0.36417 -11.85618,0.24316 -2.39206,0.60269 -3.61758,1.24208 -3.75008,1.95654 -0.21609,1.16517 -0.97278,1.47027 -1.68756,0.68045 z m 36.61927,-10.4702 c -3.25136,-0.46349 -6.51769,-2.10034 -9.99818,-5.01038 -1.81636,-1.51867 -3.91095,-3.72258 -9.67552,-10.1805 -5.23215,-5.86145 -8.96015,-8.99118 -12.08675,-10.14706 -1.57489,-0.58223 -1.90915,-0.83484 -1.90915,-1.44283 0,-0.86757 1.11907,-0.85626 3.8047,0.0385 2.03905,0.67931 3.20354,1.29962 6.02262,3.2082 3.79611,2.57006 7.07079,5.72377 11.50005,11.07526 4.20744,5.08348 9.26829,9.40472 12.01508,10.25917 0.60893,0.18941 1.57389,0.44589 2.14437,0.56994 1.1069,0.2407 1.46812,0.85635 0.90238,1.53803 -0.34292,0.4132 -0.44116,0.41651 -2.7196,0.0917 z m 62.85242,-19.5148 c -0.74457,-0.74458 -0.0808,-1.89457 1.00095,-1.73411 0.78941,0.11709 1.22845,0.85878 0.8583,1.44994 -0.34976,0.5586 -1.42107,0.72234 -1.85925,0.28417 z m -8.39264,-8.42061 c -0.81172,-0.97806 2.35362,-6.22995 5.23142,-8.67989 1.97422,-1.68071 4.81723,-3.21241 8.2581,-4.44916 1.66642,-0.59896 3.79034,-1.43952 4.71983,-1.86793 3.29534,-1.51883 3.26796,-1.51052 3.76822,-1.14472 0.36815,0.2692 0.40149,0.43938 0.17059,0.87081 -0.34881,0.65176 -1.24831,1.18632 -6.92877,4.11762 -2.43097,1.25445 -5.18193,2.78027 -6.11324,3.39071 -2.31643,1.51833 -5.73128,4.74223 -6.78176,6.40254 -1.19023,1.88121 -1.66251,2.15754 -2.32439,1.36002 z m -83.79572,-0.89417 c -3.17695,-0.70928 -5.34698,-1.83513 -7.01984,-3.64201 -1.46675,-1.58427 -2.28734,-2.99216 -2.07163,-3.55429 0.22784,-0.59375 1.26097,-0.38458 2.31709,0.46912 2.79386,2.25837 8.31195,4.06505 13.15336,4.30654 3.51656,0.1754 5.8874,-0.30423 6.89892,-1.39568 0.47835,-0.51615 0.67674,-0.57883 1.10559,-0.34932 1.11442,0.59642 0.25934,2.0582 -1.82857,3.12595 -2.81196,1.43803 -8.61734,1.91879 -12.55492,1.03969 z m 79.26375,-0.33404 c -0.99649,-2.38495 -0.67094,-8.65198 0.66145,-12.73323 2.80509,-8.59227 8.72232,-15.64314 18.51225,-22.05885 3.04942,-1.9984 9.7108,-5.53732 12.92751,-6.86786 6.22319,-2.57411 15.56603,-5.01683 18.49696,-4.83609 0.5514,0.034 0.83438,0.77271 0.46604,1.21654 -0.15716,0.18936 -0.83192,0.41885 -1.49947,0.50998 -0.66755,0.0911 -2.38371,0.4771 -3.81369,0.85773 -1.88043,0.50053 -2.39129,0.71586 -1.84594,0.77809 0.41471,0.0473 1.25626,-0.0404 1.87011,-0.195 0.61384,-0.15457 1.38602,-0.28111 1.71594,-0.28119 2.31973,-5.2e-4 11.85027,-4.15618 13.46971,-5.87312 0.65649,-0.69602 0.76513,-0.91237 0.38999,-0.77663 -0.72783,0.26335 -4.48174,0.94217 -14.49589,2.62127 -10.039,1.68327 -12.34908,2.13258 -18.00372,3.50169 -4.25564,1.03038 -11.26184,3.36334 -15.20982,5.06463 -7.89216,3.40095 -15.11687,8.36614 -22.52824,15.48256 -5.72347,5.49569 -9.84658,10.8874 -12.60554,16.48404 -0.5708,1.1579 -1.13031,2.28076 -1.24335,2.49525 -0.28988,0.55004 -1.17372,0.62246 -1.58268,0.12969 -0.45635,-0.54987 0.2676,-2.32196 2.60215,-6.36961 0.94848,-1.64448 2.14491,-3.75046 2.65874,-4.67995 0.88944,-1.60896 4.2955,-6.33479 6.0217,-8.35496 5.32793,-6.2353 7.62333,-8.34406 13.77226,-12.65244 4.63664,-3.24877 12.35656,-6.54111 19.53488,-8.33111 4.01665,-1.00159 5.65395,-1.31644 15.07982,-2.89977 15.75593,-2.64664 22.29566,-4.15022 28.35456,-6.51914 3.50565,-1.37064 5.78641,-2.76923 6.69721,-4.1068 0.78547,-1.15353 1.31816,-1.34847 1.69488,-0.62026 0.88847,1.71741 -1.63783,4.29739 -7.10694,7.25792 -0.90103,0.48774 -1.02954,0.66722 -0.96141,1.34267 0.0611,0.60546 -0.12825,0.98657 -0.84727,1.7056 -0.84025,0.84024 -4.60394,3.53865 -4.93565,3.53865 -0.0758,0 -0.69732,0.34425 -1.38113,0.765 -1.6636,1.02363 -6.35434,2.99235 -8.09616,3.398 -1.62803,0.37914 -4.83834,0.21164 -5.92865,-0.30934 -0.42259,-0.20192 -0.7651,-0.59844 -0.81408,-0.94245 -0.0678,-0.47636 -0.19644,-0.56011 -0.64999,-0.42327 -6.22819,1.87905 -17.71699,8.18539 -23.44516,12.86934 -4.10591,3.35741 -9.55265,9.61991 -12.00279,13.80045 -2.87984,4.91368 -4.98702,12.29359 -4.27024,14.9555 0.35784,1.32893 0.15559,1.90622 -0.66785,1.90622 -0.47189,0 -0.72683,-0.21872 -0.9905,-0.84975 z m -80.08745,-7.19896 c -3.33387,-0.59786 -5.30533,-1.12338 -8.35303,-2.2266 -6.59885,-2.38869 -12.02282,-6.06839 -11.75169,-7.97252 0.14285,-1.00317 0.91252,-0.85543 2.18794,0.41999 1.21147,1.21148 3.81557,2.87012 5.92734,3.77532 1.52968,0.6557 6.62273,2.01863 9.32956,2.49664 3.98551,0.70383 11.38379,0.80819 11.36462,0.16032 -0.003,-0.0959 -0.59757,-0.5253 -1.32162,-0.95429 -1.93265,-1.14509 -4.78168,-3.93604 -5.82334,-5.70464 -0.99708,-1.69289 -1.10612,-2.25865 -0.52784,-2.73859 0.32118,-0.26655 0.13913,-0.47913 -1.14418,-1.33609 -3.82243,-2.55252 -7.48354,-8.24338 -6.25532,-9.7233 0.57356,-0.6911 0.9709,-0.42059 2.42018,1.64768 2.49042,3.5541 5.57644,5.94906 10.32138,8.01011 1.75334,0.76159 2.65929,0.98963 4.41587,1.11155 2.17415,0.15089 2.21131,0.16497 2.29223,0.86824 0.0656,0.5704 -0.056,0.76744 -0.60192,0.97499 -1.41291,0.53719 -5.66138,0.13492 -8.3521,-0.79083 -0.76897,-0.26456 -1.39811,-0.38887 -1.39811,-0.27624 0,0.42613 3.35047,3.39859 5.12396,4.54585 3.23241,2.09103 7.84079,3.54126 11.25304,3.54126 1.22211,0 1.616,0.0962 1.74232,0.42534 0.26544,0.69172 -0.27122,1.22089 -1.57566,1.55366 -2.41459,0.61596 -4.0943,0.65136 -6.53378,0.13767 -1.28699,-0.27101 -2.37373,-0.46363 -2.41497,-0.42805 -0.0412,0.0356 0.45599,0.31429 1.10498,0.61936 1.24093,0.5833 1.60275,1.42903 0.72499,1.6946 -2.56604,0.77638 -8.32052,0.85618 -12.15485,0.16857 z m 41.52437,-4.08191 c -0.41893,-0.17416 -2.8599,-3.8097 -4.8605,-7.23915 -5.40883,-9.27186 -10.21899,-15.18255 -15.74325,-19.34521 -3.04278,-2.29281 -7.10911,-4.13008 -11.20706,-5.06366 -1.29339,-0.29465 -1.13144,-1.72082 0.19542,-1.72082 1.89373,0 10.1874,2.95296 13.50591,4.80877 4.21487,2.35709 8.09151,7.25059 12.97704,16.38098 2.22025,4.14933 4.63697,8.28452 5.66676,9.69625 1.0875,1.49083 1.21188,2.48843 0.3208,2.57289 -0.28599,0.0271 -0.6708,-0.0134 -0.85512,-0.09 z m -42.69436,-2.86948 c -2.11257,-0.25159 -7.06675,-1.4935 -9.35989,-2.34633 -6.05838,-2.25316 -11.96946,-5.98345 -15.55413,-9.81569 -1.77707,-1.89981 -2.28202,-2.73502 -2.03799,-3.37094 0.30842,-0.80374 1.21038,-0.39061 2.95833,1.35503 3.25407,3.24974 7.94753,6.02583 13.88679,8.21377 4.0041,1.47506 6.3939,2.10113 9.44264,2.47377 2.17053,0.2653 2.39246,0.34944 3.32609,1.26111 0.72419,0.70715 0.97936,1.15667 0.92425,1.6282 -0.0694,0.59356 -0.19149,0.65393 -1.37611,0.6804 -0.71499,0.016 -1.70948,-0.0197 -2.20998,-0.0793 z m 104.71375,-2.04841 c -0.48208,-0.26154 -0.71499,-0.59692 -0.71499,-1.02958 0,-0.35293 0.0292,-0.64322 0.065,-0.6451 0.97669,-0.0513 5.30954,-1.1941 6.95492,-1.83433 l 2.20997,-0.85993 -1.62134,-0.33259 c -2.20958,-0.45325 -3.1886,-0.99025 -3.1886,-1.74898 0,-0.57132 0.12254,-0.61604 2.14497,-0.78287 2.56519,-0.2116 3.4934,-0.44354 6.5625,-1.63989 4.19838,-1.63654 5.70292,-2.65805 2.57612,-1.74907 -3.08707,0.89744 -7.3514,0.33921 -7.59785,-0.9946 -0.10067,-0.54484 -0.0278,-0.56882 2.89728,-0.95308 2.4735,-0.32495 7.20979,-1.66954 9.56882,-2.7165 2.0097,-0.89193 4.27833,-2.36137 5.76056,-3.73125 1.33614,-1.23486 2.08349,-1.35688 2.22464,-0.36323 0.15033,1.05823 -3.40909,4.22979 -7.00542,6.24205 -1.27742,0.71475 -1.44253,0.89759 -1.33213,1.47511 0.0873,0.45692 -0.0636,0.86213 -0.49182,1.32035 -0.70891,0.75857 -4.4674,3.3137 -5.43129,3.69236 -0.35557,0.13968 -1.33442,0.56205 -2.17523,0.93859 -1.358,0.60815 -1.47826,0.72153 -1.07672,1.01514 0.77299,0.56522 0.33332,1.28982 -1.55495,2.56264 -3.46374,2.3348 -6.87562,3.16489 -8.77444,2.13476 z m -112.07158,-6.3616 c -9.24443,-2.29773 -18.64655,-8.06538 -24.94589,-15.30282 -1.5439,-1.77382 -1.87292,-2.76998 -1.12102,-3.394 0.30854,-0.25607 0.94094,0.25883 3.57496,2.91075 2.30824,2.32393 3.99717,3.74876 6.06007,5.11249 4.81816,3.18514 10.9981,5.91354 16.2498,7.17417 2.83912,0.68151 3.04631,0.77696 4.10668,1.89187 0.61419,0.64578 1.08105,1.36174 1.03746,1.59103 -0.1176,0.61864 -2.50755,0.62659 -4.96206,0.0165 z m 12.81777,-4.79739 c -5.32983,-1.06903 -10.10145,-4.04685 -12.76162,-7.96413 -1.80921,-2.66418 -2.68112,-5.32301 -1.94572,-5.93333 0.65671,-0.54503 1.25168,-0.19416 2.089,1.23194 2.70181,4.60166 9.66402,9.81591 14.43832,10.81338 1.07248,0.22407 2.29997,0.43948 2.72774,0.4787 0.92723,0.085 1.214,0.89758 0.5008,1.41909 -0.58174,0.42537 -2.80017,0.40531 -5.04852,-0.0456 z m -15.98981,-3.37943 c -10.65276,-3.17346 -22.91743,-12.07762 -27.5692,-20.01527 -0.87369,-1.49083 -0.82102,-2.86715 0.10971,-2.86715 0.50013,0 0.80208,0.3411 1.55998,1.7623 2.3728,4.44939 8.97417,9.95917 16.70153,13.93977 4.01938,2.0705 7.02052,3.21535 10.19973,3.89091 1.23774,0.26301 2.48393,0.68951 2.76932,0.94778 1.04172,0.94275 0.35599,3.00174 -0.99085,2.97512 -0.38514,-0.008 -1.63623,-0.29267 -2.78022,-0.63346 z m 129.60845,-2.56862 c -1.75244,-0.37731 -2.07997,-0.57061 -2.07997,-1.22753 0,-0.61144 -0.0533,-0.59359 3.32182,-1.1135 3.44791,-0.53113 6.64094,-1.61514 10.84801,-3.68284 2.28145,-1.12129 3.91354,-2.12906 5.02171,-3.10079 1.38031,-1.21035 1.72189,-1.39671 2.14498,-1.17029 0.27677,0.14813 0.50322,0.47435 0.50322,0.72494 0,1.15158 -5.83396,5.67236 -10.09734,7.82451 -3.38379,1.70813 -6.89228,2.34194 -9.66243,1.7455 z m -134.0284,-6.76458 c -7.75591,-2.83275 -17.03609,-9.74064 -22.82671,-16.99154 -1.98421,-2.48459 -2.45034,-3.35228 -2.09986,-3.90883 0.57002,-0.90517 1.09054,-0.64824 2.34849,1.15923 1.37424,1.97457 4.58767,5.24357 7.46805,7.59721 4.90304,4.00643 12.22375,7.87992 17.2557,9.13026 1.22813,0.30516 1.75457,0.92469 2.01978,2.37691 0.14514,0.79472 0.0865,0.9994 -0.35367,1.23498 -0.77651,0.41558 -1.2316,0.34415 -3.81178,-0.59822 z"
           style="fill:#d0d0d0" />
        <path
           inkscape:connector-curvature="0"
           id="path3370"
           d="m 367.62317,498.4021 c -0.23662,-0.36113 -0.49386,-1.35843 -0.57164,-2.21622 -0.12223,-1.34789 -0.0432,-1.76048 0.58244,-3.03915 1.02395,-2.09287 3.87196,-4.97766 6.7634,-6.85075 3.16676,-2.05144 7.1598,-3.9859 7.75562,-3.75726 0.83334,0.31978 0.31291,0.96538 -1.53631,1.9058 -2.90899,1.47938 -6.98152,5.04183 -9.43711,8.25512 -1.17114,1.53252 -2.19729,3.90149 -2.22522,5.13715 -0.029,1.28311 -0.67978,1.55947 -1.33118,0.56531 z m 12.04926,-0.0788 c -2.40016,-2.73526 -1.4299,-6.89809 2.63425,-11.30214 2.31409,-2.50762 4.43722,-4.19799 7.42362,-5.91047 2.8124,-1.6127 3.4084,-1.7966 3.97768,-1.22733 0.37137,0.37138 0.37668,0.46766 0.043,0.77955 -0.20939,0.19572 -0.76149,0.48232 -1.22688,0.63688 -2.42908,0.80676 -5.95461,3.99061 -8.2668,7.46562 -2.02296,3.04032 -3.05126,5.72625 -3.08246,8.05146 -0.0219,1.62869 -0.0806,1.82801 -0.55876,1.89643 -0.29389,0.042 -0.71853,-0.13346 -0.94364,-0.39 z m -26.73169,-6.44245 c -2.0706,-0.41316 -5.69795,-1.78726 -6.60826,-2.50331 -1.27451,-1.00253 -0.66328,-1.88379 0.73455,-1.05905 2.11848,1.24994 5.75208,1.69008 8.78588,1.06425 2.10428,-0.43408 6.19031,-2.50002 10.15527,-5.1346 4.25896,-2.82994 6.48628,-3.98479 8.78891,-4.55698 2.1122,-0.52487 2.69076,-0.53122 3.10335,-0.0341 0.48269,0.5816 -0.0624,1.0813 -1.3979,1.28158 -0.61663,0.0925 -1.9876,0.60564 -3.04659,1.14038 -1.75634,0.88688 -2.9953,1.77101 -7.90059,5.63794 -2.41223,1.90159 -5.67355,3.79914 -7.2183,4.19984 -1.63086,0.42304 -3.14659,0.41294 -5.39632,-0.036 z m -10.91987,-6.44876 c -3.66519,-1.34478 -7.7999,-3.7993 -7.7999,-4.63031 0,-0.70094 0.69432,-0.62843 2.63577,0.27526 5.62731,2.61934 11.41423,2.33225 21.15946,-1.04973 5.9568,-2.06724 10.77773,-3.28596 11.65966,-2.94754 0.8234,0.31597 0.49085,1.07783 -0.55031,1.26072 -2.17148,0.38145 -6.34231,1.84772 -11.8265,4.15765 -7.09879,2.99 -8.00921,3.27076 -11.11823,3.42861 -2.15032,0.10918 -2.68867,0.0452 -4.15995,-0.49466 z m 42.4445,-3.73723 c -0.62274,-0.25128 -0.31829,-1.0617 0.64999,-1.73028 1.87872,-1.29721 3.43591,-1.81403 10.32508,-3.4268 6.63748,-1.55385 12.08398,-3.7811 16.90959,-6.91487 2.3126,-1.50181 7.30777,-5.67869 11.78642,-9.8556 5.77209,-5.38321 7.08115,-6.46535 9.74521,-8.05589 1.40351,-0.83795 3.45099,-1.84408 4.54994,-2.23583 1.09895,-0.39175 2.10073,-0.80183 2.22617,-0.91129 0.40582,-0.3541 -1.85091,-0.81108 -2.44233,-0.49456 -0.7935,0.42467 -1.03512,0.10389 -1.04141,-1.38262 -0.007,-1.67693 -0.66353,-3.13426 -1.97827,-4.39191 -2.51122,-2.40215 -4.70106,-2.3511 -13.48584,0.31438 -4.71072,1.42933 -8.21222,2.13457 -10.72487,2.1601 -1.17974,0.012 -2.05723,0.0994 -1.94998,0.19431 0.4127,0.36511 2.01035,0.76348 3.06193,0.76348 1.21237,0 1.87577,0.48323 1.36484,0.99417 -0.47963,0.47963 -2.64282,0.35911 -4.42573,-0.24657 -5.58421,-1.89702 -12.60134,-7.31332 -17.02746,-13.14295 -4.39617,-5.79019 -6.61236,-9.4092 -10.63957,-17.3743 -8.07373,-15.96843 -11.41431,-20.16763 -18.31623,-23.02404 -2.62298,-1.08554 -8.48037,-2.37622 -13.49207,-2.97298 -4.53567,-0.54009 -12.8407,-1.83645 -15.95161,-2.48996 -6.15322,-1.2926 -8.98545,-2.23812 -14.33803,-4.78666 -2.96763,-1.41299 -5.38173,-2.80223 -14.28638,-8.22134 -4.9497,-3.01224 -11.84613,-4.69307 -14.21965,-3.46567 -0.97256,0.50293 -1.58861,0.31054 -1.47684,-0.46122 0.13368,-0.92308 2.81047,-2.36538 4.63486,-2.49734 2.66955,-0.1931 4.60634,0.61348 15.28529,6.36563 5.98502,3.22378 8.85058,4.59753 13.31269,6.38209 7.07276,2.82866 14.39376,5.04258 20.40975,6.17205 3.74226,0.70259 7.22085,1.29871 9.87988,1.6931 10.43135,1.54719 16.79617,3.78375 20.54588,7.21968 2.40107,2.20014 3.95172,4.63236 7.08193,11.10811 5.5305,11.44146 6.82556,13.99189 8.65175,17.03846 2.35136,3.92269 5.17377,8.11543 6.82582,10.13988 3.05339,3.74167 8.2644,8.55169 10.55711,9.74473 0.52583,0.27363 0.65978,0.25875 0.85791,-0.0953 0.16906,-0.30209 0.61332,-0.41966 1.58685,-0.41994 1.53678,-5.2e-4 6.10094,-1.16743 9.0713,-2.31938 2.57435,-0.99837 6.29409,-1.98936 8.88288,-2.3665 5.04252,-0.73462 9.87577,1.62429 11.71211,5.7162 0.65638,1.46261 0.77608,1.57563 2.52014,2.37952 1.00707,0.46419 2.06575,1.14237 2.35262,1.50707 l 0.52158,0.66308 -0.56828,0.46017 c -0.31255,0.25308 -0.83288,0.46016 -1.15628,0.46016 -0.70543,0 -4.26451,1.13758 -5.42058,1.73256 -3.28213,1.68919 -5.89131,3.99083 -13.09399,11.55064 -2.26025,2.37232 -5.08997,5.15773 -6.28828,6.18979 -6.54421,5.63632 -12.95187,8.34022 -21.61098,9.11939 -5.92122,0.53281 -8.25327,1.11825 -9.88502,2.48154 -0.59623,0.49814 -1.10223,0.89646 -1.12445,0.88517 -0.0222,-0.0113 -0.18665,-0.0795 -0.36539,-0.15166 z m -50.96481,-5.85215 c -0.5487,-0.5487 -0.36621,-1.63432 0.39541,-2.35235 2.25698,-2.1278 6.42475,-2.91774 16.8348,-3.19076 11.65814,-0.30575 16.54283,-1.21011 22.66593,-4.1964 3.42394,-1.66988 5.39169,-3.01321 7.71435,-5.26634 3.07228,-2.98032 6.07125,-7.27693 6.78055,-9.71445 0.16716,-0.57444 0.89201,-0.59318 1.10863,-0.0287 0.2543,0.66268 -1.08352,4.40895 -2.44747,6.85358 -0.95078,1.70411 -1.9185,2.8981 -4.22768,5.21616 -1.64706,1.6534 -3.83308,3.56362 -4.85783,4.24492 -6.25024,4.15547 -15.68573,6.0493 -26.86648,5.39247 -8.32847,-0.48927 -11.15342,-0.29843 -14.04351,0.94874 -1.28279,0.55356 -1.70972,0.95478 -1.85631,1.74452 -0.11381,0.61317 -0.75081,0.79814 -1.20039,0.34857 z m 36.27686,-10.61845 c -5.5088,-0.95319 -9.44506,-3.92426 -17.90792,-13.51685 -2.08159,-2.35947 -4.50455,-5.0209 -5.38435,-5.91427 -2.67977,-2.72115 -6.20035,-5.12166 -9.20922,-6.27934 -0.78226,-0.30098 -0.95315,-0.99117 -0.30682,-1.23919 0.56871,-0.21823 4.12615,0.84668 5.75587,1.723 4.62279,2.48575 9.49029,6.76831 14.19571,12.48979 5.28567,6.42702 10.58833,10.7591 13.8459,11.3116 1.79302,0.30411 1.96931,0.39727 1.88408,0.99558 -0.0929,0.65238 -0.89392,0.77216 -2.87325,0.42968 z m 63.16764,-19.39818 c -0.35099,-0.35099 -0.18421,-1.12086 0.29881,-1.37936 0.63287,-0.33871 1.428,0.21793 1.29695,0.90795 -0.0964,0.50762 -1.22589,0.84129 -1.59576,0.47141 z m -8.41404,-8.55605 c -0.18951,-0.49385 0.96808,-3.2106 1.9153,-4.49502 3.12767,-4.24109 6.25516,-6.36935 12.68339,-8.6311 1.71598,-0.60375 3.90391,-1.49193 4.86207,-1.97372 1.52574,-0.76719 2.55648,-0.92911 2.54387,-0.39961 -0.0158,0.66198 -1.12091,1.3636 -6.88594,4.37168 -2.71697,1.41766 -5.68605,3.08428 -6.59795,3.70359 -2.2358,1.51844 -5.33493,4.50024 -6.5757,6.32674 -1.01191,1.48962 -1.65526,1.85261 -1.94504,1.09744 z m -84.48477,-1.01935 c -1.30053,-0.33623 -2.8624,-0.86529 -3.4708,-1.17567 -1.4682,-0.74902 -3.17587,-2.35119 -4.1893,-3.93048 -0.66754,-1.04028 -0.76356,-1.35551 -0.50702,-1.66461 0.35821,-0.43161 0.91194,-0.22723 2.13161,0.78677 1.20747,1.00386 5.17808,2.75061 7.75014,3.40944 1.463,0.37475 3.64594,0.69669 5.3545,0.78969 2.48218,0.1351 3.13496,0.0808 4.67994,-0.38955 0.98748,-0.3006 1.99693,-0.78308 2.24324,-1.07219 0.25574,-0.30018 0.61816,-0.46026 0.84499,-0.37322 1.0797,0.41432 -0.15545,2.0209 -2.27386,2.95765 -3.23576,1.43082 -8.51424,1.70903 -12.56344,0.66217 z m 79.94373,-0.0781 c -0.43406,-1.12007 -0.58038,-5.42559 -0.26969,-7.93605 0.77296,-6.24575 4.55655,-13.58511 9.52954,-18.4853 9.12832,-8.99468 22.24461,-16.00124 35.30079,-18.85725 4.94908,-1.0826 5.75775,-1.17104 6.16963,-0.67476 0.52153,0.62841 0.10601,0.84082 -2.73359,1.39738 -4.35745,0.85406 -10.52343,2.99126 -14.68711,5.09072 -12.25854,6.18114 -18.7157,11.24877 -24.96121,19.58976 -3.63775,4.85827 -5.63514,9.19706 -6.75806,14.68001 -0.4779,2.33347 -0.52246,2.9816 -0.28204,4.10261 0.31861,1.48567 0.22592,1.80787 -0.52009,1.80787 -0.31704,0 -0.61628,-0.27145 -0.78817,-0.71499 z m -24.29522,-4.56152 c -0.23478,-0.61181 0.56837,-2.34802 3.39498,-7.3391 3.05074,-5.38683 4.11249,-6.93988 8.08362,-11.8241 5.2084,-6.40596 12.26917,-12.30558 18.43652,-15.40461 7.4208,-3.72889 14.15471,-5.69355 26.90967,-7.8511 18.76473,-3.17412 22.38087,-3.94571 28.69351,-6.1224 5.51713,-1.90239 8.6405,-3.70191 9.67264,-5.57286 0.18999,-0.34441 0.42426,-0.44472 0.74826,-0.32039 0.38235,0.14672 0.44192,0.36474 0.31457,1.15137 -0.11714,0.7236 -0.47274,1.25492 -1.39825,2.08921 -1.47624,1.33073 -4.08155,3.09188 -6.01771,4.06789 -1.03197,0.5202 -1.32046,0.78014 -1.10499,0.99561 0.52429,0.52429 0.30951,1.102 -0.81338,2.18784 -2.28809,2.21257 -8.28781,5.56061 -12.4607,6.95347 -3.2618,1.08875 -7.88406,0.79337 -7.88406,-0.50381 0,-0.40733 0.19716,-0.53549 0.90999,-0.5915 5.77597,-0.45387 14.16145,-3.4902 17.78042,-6.43819 0.82025,-0.66818 1.43645,-1.26978 1.36933,-1.33689 -0.0671,-0.0671 -1.21505,0.11382 -2.55098,0.40208 -1.33591,0.28827 -6.40689,1.18213 -11.26884,1.98636 -16.12701,2.66763 -21.14483,3.81387 -29.24287,6.68003 -4.73799,1.67692 -8.01248,3.1067 -11.4653,5.00622 -12.71177,6.99319 -24.87214,19.16829 -29.94019,29.97647 -0.76316,1.62752 -1.13019,2.14497 -1.52144,2.14497 -0.28361,0 -0.57377,-0.15145 -0.6448,-0.33657 z m -54.32388,-2.42323 c -7.92958,-1.15475 -16.96722,-4.89983 -20.36991,-8.44101 -1.18014,-1.22819 -1.44779,-2.31903 -0.56899,-2.31903 0.28097,0 0.63551,0.23293 0.78786,0.51761 0.58087,1.08536 4.57959,3.61187 7.33887,4.6369 1.85154,0.68782 6.17423,1.79394 8.86831,2.26928 2.75712,0.48646 8.34532,0.73198 9.84424,0.43252 1.12886,-0.22553 1.35806,-0.17352 3.05496,0.69328 3.18378,1.62634 2.28171,2.14926 -3.8854,2.25234 -2.35947,0.0394 -4.64094,0.0206 -5.06994,-0.0419 z m 11.09676,-2.31593 c -3.07257,-0.70291 -6.00298,-2.41443 -8.65183,-5.05315 -1.49562,-1.4899 -3.08816,-3.94328 -3.09248,-4.7641 -0.006,-1.13478 0.84461,-0.75894 2.94533,1.3014 1.16719,1.14476 2.64866,2.43265 3.29215,2.86197 3.19377,2.13083 7.385,3.59863 11.17987,3.91528 1.95723,0.16332 2.20997,0.24257 2.20997,0.69297 0,1.07223 -4.91623,1.72433 -7.88301,1.04563 z m 28.5448,-2.52918 c -0.6043,-0.64483 -2.3381,-3.35505 -6.2231,-9.72776 -3.97371,-6.51822 -7.94704,-11.38554 -12.19477,-14.93854 -3.77111,-3.15433 -7.14018,-4.94629 -11.47381,-6.10275 -2.09408,-0.55882 -2.63027,-0.96669 -2.04292,-1.55405 0.3713,-0.3713 0.66622,-0.33478 3.24068,0.40127 3.71271,1.06149 8.34738,2.87018 10.684,4.16946 4.27001,2.37436 8.08658,7.13183 12.82561,15.98751 2.24587,4.19679 4.5249,8.10624 5.78306,9.92028 0.70966,1.02321 1.21114,1.98845 1.1144,2.14498 -0.29029,0.46971 -1.12933,0.32259 -1.71315,-0.3004 z m -45.23149,-2.92869 c -3.78417,-0.78434 -6.44107,-1.66711 -9.83694,-3.26836 -4.09563,-1.9312 -8.1562,-4.53576 -10.66884,-6.84329 -1.4796,-1.35881 -3.41394,-3.79527 -3.41394,-4.30013 0,-1.04611 0.76997,-0.71887 2.66323,1.13188 3.7528,3.66855 8.77896,6.52059 15.53656,8.81607 3.02507,1.02759 4.57323,1.37599 9.53127,2.1449 0.9812,0.15217 2.75901,1.9666 2.52484,2.57684 -0.22516,0.58675 -2.75858,0.48363 -6.33618,-0.25791 z m 108.07999,-1.35046 c -0.75757,-0.30829 -0.97031,-0.52879 -0.90999,-0.94319 0.0665,-0.45684 0.42302,-0.60991 2.29569,-0.98568 1.21934,-0.24467 3.41541,-0.92231 4.88017,-1.50586 3.03886,-1.21068 3.69273,-1.3049 3.69273,-0.53211 0,0.37506 -0.58612,0.90536 -2.01498,1.82306 -3.37021,2.16458 -6.08932,2.89839 -7.94362,2.14378 z m -97.76677,-2.57929 c -3.71043,-0.79597 -6.83612,-2.56869 -9.3867,-5.32362 -2.67581,-2.8902 -4.36696,-7.63065 -2.44497,-6.8535 0.19165,0.0775 0.81646,0.84681 1.38845,1.7096 3.10247,4.67971 10.08434,9.01548 14.94982,9.2839 2.0819,0.11485 2.56543,0.40708 1.89653,1.14621 -0.52892,0.58445 -3.76496,0.60335 -6.40313,0.0374 z m 102.81886,-2.67567 c -1.35952,-0.46945 -2.02086,-1.01334 -1.64759,-1.35497 0.1013,-0.0927 1.34971,-0.30246 2.77425,-0.46611 3.25912,-0.37441 8.06363,-2.13861 10.7478,-3.94656 1.14679,-0.77244 1.73353,-0.92736 1.98306,-0.52362 0.77281,1.25044 -8.90374,6.81828 -11.78668,6.78199 -0.37086,-0.005 -1.30274,-0.2255 -2.07084,-0.49073 z m -115.08206,-0.83688 c -5.51055,-0.68738 -12.90888,-3.8847 -19.16798,-8.28379 -2.58866,-1.81939 -7.99569,-6.88295 -9.18977,-8.60599 -0.56849,-0.82034 -0.67109,-1.15364 -0.45875,-1.49027 0.15043,-0.23849 0.3949,-0.43361 0.54327,-0.43361 0.14837,0 1.18178,0.99449 2.29647,2.20997 1.11468,1.21549 2.68039,2.73647 3.47933,3.37996 5.337,4.29857 12.73974,7.94358 19.61239,9.65688 2.91842,0.72754 3.21529,0.8599 4.12003,1.83694 1.56728,1.69254 1.31365,2.04783 -1.23499,1.72991 z m 118.98585,-4.38782 c -1.23196,-0.25925 -1.85725,-0.65316 -1.85725,-1.17002 0,-0.45368 0.60342,-0.64564 2.03624,-0.64779 2.7476,-0.004 9.50977,-2.16131 12.71584,-4.05645 1.10975,-0.65599 2.57745,-1.71613 3.26157,-2.35588 1.2661,-1.18399 1.8052,-1.31848 1.96573,-0.49039 0.18048,0.93098 -3.37094,3.91983 -7.36953,6.20214 -3.7554,2.1435 -7.91006,3.11657 -10.7526,2.51839 z M 343.87023,408.6663 c -3.81399,-0.82743 -6.43344,-2.09919 -9.38774,-4.55778 -2.6487,-2.20427 -4.87679,-5.7362 -5.01042,-7.94241 -0.0517,-0.85295 0.0239,-1.02006 0.49133,-1.0868 0.43036,-0.0614 0.72461,0.22573 1.33202,1.29993 1.64864,2.91566 6.08982,6.95946 10.11649,9.2113 1.91001,1.06814 4.61491,1.91738 6.10701,1.91738 1.27973,0 1.78187,0.2198 1.78187,0.77999 0,0.2554 -0.18507,0.53538 -0.41126,0.62218 -0.68566,0.26311 -3.25889,0.13813 -5.0193,-0.24379 z m -16.53918,-3.5909 c -5.92929,-1.95031 -11.79777,-5.18854 -17.2898,-9.54051 -5.12799,-4.06351 -10.50876,-10.63485 -10.00575,-12.21968 0.30441,-0.9591 1.09949,-0.58482 1.8226,0.85799 3.51339,7.01025 17.11258,16.20742 26.97775,18.24513 2.49612,0.51559 2.67373,0.59088 3.16592,1.34205 0.37316,0.56951 0.374,0.70217 0.009,1.40815 -0.5322,1.02916 -1.31503,1.01358 -4.67964,-0.0931 z m 130.05924,-2.35585 c -1.43745,-0.38665 -1.60782,-0.51153 -1.40804,-1.03214 0.0875,-0.22803 0.65282,-0.44734 1.3971,-0.54198 6.47988,-0.82401 14.1488,-4.01588 17.96793,-7.47841 1.15265,-1.04502 1.67639,-1.14418 1.831,-0.34668 0.1139,0.58754 -0.88994,1.64427 -3.33898,3.51493 -6.70386,5.1206 -12.10501,7.05275 -16.44901,5.88428 z m -133.5692,-6.63311 c -4.11972,-1.51097 -8.30335,-3.94035 -13.35963,-7.75774 -4.98911,-3.76668 -11.82517,-11.30954 -11.54908,-12.74317 0.19979,-1.03745 0.95408,-0.57595 2.39082,1.4628 1.9124,2.71371 6.56929,7.04577 10.29978,9.58135 4.07563,2.77017 9.91638,5.64028 13.25606,6.51395 2.01228,0.52642 2.28403,0.7206 2.63152,1.88043 0.58983,1.96865 -0.40957,2.258 -3.66947,1.06238 z"
           style="fill:#b0b0b0" />
        <path
           inkscape:connector-curvature="0"
           id="path3368"
           d="m 367.82869,498.45305 c -0.35508,-0.43552 -0.84481,-2.2255 -0.84666,-3.09459 -0.003,-1.22049 1.54995,-3.75459 3.48044,-5.68077 2.18611,-2.18122 4.76895,-3.96761 8.3065,-5.74507 2.69691,-1.35507 3.64913,-1.58824 3.50549,-0.8584 -0.0877,0.44572 -0.13448,0.47787 -2.03404,1.39855 -2.66418,1.29128 -7.3297,5.49342 -9.33469,8.40757 -1.27694,1.85596 -2.15599,3.95091 -2.05967,4.90857 0.0916,0.91044 -0.50113,1.29735 -1.01737,0.66414 z m 11.79484,-0.47421 c -1.429,-1.69828 -1.53615,-3.73111 -0.3328,-6.3139 1.83532,-3.9392 5.78668,-7.84272 10.68657,-10.55716 2.32814,-1.28974 3.78296,-1.66765 3.78296,-0.98266 0,0.47505 -0.54172,0.96199 -1.07021,0.96199 -0.82913,0 -4.35554,2.60998 -6.13355,4.53958 -3.27276,3.5518 -5.66686,8.42167 -5.49581,11.1791 0.12904,2.08007 -0.34701,2.46862 -1.43716,1.17305 z m -26.05147,-6.09739 c -3.29618,-0.61718 -7.91123,-2.52681 -7.91123,-3.27355 0,-0.49429 0.78959,-0.55439 1.46546,-0.11154 0.37479,0.24557 1.45576,0.66793 2.40213,0.93857 4.58957,1.3125 8.79371,0.0165 16.54217,-5.0994 2.00197,-1.3218 4.34194,-2.75385 5.19993,-3.18233 2.97564,-1.48605 6.77888,-2.18185 6.58399,-1.20453 -0.054,0.27078 -0.8294,0.66596 -2.16816,1.10499 -2.69142,0.8826 -3.69487,1.49135 -8.0893,4.90745 -7.36601,5.72611 -9.73083,6.72437 -14.02499,5.92034 z m -10.5112,-6.25294 c -1.81431,-0.49392 -6.86402,-3.00406 -8.0599,-4.00647 -0.68814,-0.57681 -0.83705,-0.83646 -0.61078,-1.06506 0.22701,-0.22935 0.80634,-0.0733 2.40087,0.64663 2.68664,1.21306 4.98364,1.6933 8.12607,1.69896 3.71396,0.007 8.45317,-0.99927 13.51908,-2.86961 3.24355,-1.19752 9.25846,-2.8458 10.38491,-2.8458 1.05994,0 1.47443,0.3079 0.95157,0.70689 -0.17717,0.1352 -1.02413,0.40226 -1.88212,0.59348 -2.05945,0.45897 -6.6115,2.14034 -11.49157,4.24459 -6.91647,2.98233 -10.31309,3.71991 -13.33813,2.89639 z m 41.33951,-4.54713 c 0,-1.23681 3.44614,-2.66631 10.04751,-4.16784 6.87431,-1.5636 11.51454,-3.34014 16.6416,-6.37134 3.17572,-1.87754 8.54118,-6.2598 13.35041,-10.90398 4.06833,-3.92872 6.79318,-6.19893 9.14655,-7.62043 2.34347,-1.41552 5.2269,-2.73066 6.64826,-3.0323 0.46475,-0.0986 0.84499,-0.28011 0.84499,-0.40331 0,-0.43 -0.65954,-0.62486 -2.18228,-0.64474 l -1.53389,-0.02 -0.0639,-1.44382 c -0.0725,-1.6356 -0.58799,-2.82246 -1.77392,-4.08381 -2.46072,-2.61723 -5.19301,-2.53241 -15.11571,0.46925 -4.18382,1.26563 -8.00438,1.91453 -10.33488,1.75533 -1.10824,-0.0757 -2.01498,-0.0548 -2.01498,0.0464 0,0.29964 2.37736,1.0649 3.85007,1.23932 0.75079,0.0889 1.43513,0.27505 1.52077,0.41362 0.29631,0.47943 -0.56681,0.71728 -1.99088,0.54863 -4.47753,-0.53026 -10.16628,-4.00619 -15.72697,-9.60947 -4.9046,-4.94217 -8.90728,-10.92182 -13.99343,-20.90499 -7.25447,-14.23916 -10.1508,-18.42451 -14.94484,-21.59608 -4.01242,-2.65448 -7.42817,-3.53351 -21.11397,-5.43361 -9.36178,-1.29976 -13.53959,-2.11649 -18.7152,-3.65865 -5.2879,-1.57563 -12.15064,-5.1049 -21.32432,-10.96636 -3.30199,-2.10978 -7.16932,-3.57204 -10.88356,-4.11514 -1.8389,-0.26888 -2.29094,-0.25234 -3.44801,0.12611 -1.3295,0.43486 -2.04824,0.39768 -2.04824,-0.10594 0,-0.47798 2.14441,-1.83398 3.54353,-2.24071 2.75026,-0.79952 5.00938,0.0393 15.95624,5.92485 6.62397,3.56133 9.57667,4.97212 14.29983,6.83236 9.76602,3.84641 17.7976,5.92677 29.55274,7.65483 7.12344,1.04717 12.10795,2.31914 15.86213,4.04775 2.46033,1.13286 3.82356,2.09522 5.66562,3.99958 2.47803,2.56185 3.4505,4.28326 8.83168,15.63328 6.15949,12.99162 11.45731,21.04365 17.89497,27.19809 2.26171,2.16222 5.75067,4.7793 6.3715,4.7793 0.14284,0 0.32089,-0.23399 0.39569,-0.51999 0.11583,-0.44296 0.35463,-0.51999 1.61198,-0.51999 1.8165,0 4.42639,-0.65707 8.84256,-2.2262 4.29412,-1.52576 8.32187,-2.44838 10.7017,-2.45139 4.49821,-0.006 8.459,2.46039 9.86512,6.14227 0.40264,1.05429 0.61196,1.24303 2.15413,1.94228 1.79214,0.81259 2.88874,1.65468 2.88874,2.21827 0,0.18406 -0.49724,0.45643 -1.10499,0.60527 -7.22588,1.76969 -9.55695,3.46962 -19.92133,14.52761 -8.82613,9.4168 -15.88664,13.12306 -27.07311,14.21142 -6.03436,0.5871 -8.79773,1.34002 -9.94233,2.7089 -0.57795,0.6912 -1.23753,0.6994 -1.23753,0.0154 z m -50.96051,-5.58554 c -0.85664,-1.03219 1.46506,-3.16921 4.13106,-3.80244 2.77411,-0.65891 6.81072,-1.0382 13.50185,-1.26869 10.65226,-0.36693 14.4498,-0.93373 19.41776,-2.89818 8.53913,-3.37658 13.90047,-8.36584 17.55758,-16.33907 0.2641,-0.57577 0.6303,-0.47389 0.72621,0.20204 0.23714,1.67129 -2.37295,7.14994 -4.67531,9.81359 -1.65807,1.91826 -4.96441,4.91295 -6.80222,6.16107 -3.21536,2.18365 -8.4213,4.05026 -13.56618,4.8642 -3.08725,0.48842 -8.92894,0.72035 -12.60985,0.50064 -6.50758,-0.38843 -10.31157,-0.30196 -12.58535,0.28607 -2.49914,0.64631 -3.59641,1.25321 -3.79624,2.09971 -0.18074,0.7656 -0.82367,0.95416 -1.29931,0.38106 z m 34.86977,-10.67383 c -3.03642,-0.82891 -6.08936,-2.69516 -9.37873,-5.73319 -0.91197,-0.84229 -3.90196,-4.0469 -6.64442,-7.12137 -2.74246,-3.07446 -5.78674,-6.33783 -6.76506,-7.25194 -2.08915,-1.95202 -5.97496,-4.57153 -7.42669,-5.00647 -1.26233,-0.37821 -1.67968,-0.81669 -1.17554,-1.23508 0.45979,-0.38159 4.63909,0.91455 6.41199,1.98859 5.23526,3.17152 8.55968,6.16464 13.74667,12.37669 5.66948,6.7899 9.76757,10.10897 13.66436,11.06684 1.19997,0.29496 1.8283,0.57688 1.8283,0.82032 0,0.52505 -2.48363,0.58078 -4.26088,0.0956 z m 64.70858,-19.22638 c -0.28769,-0.34664 -0.27647,-0.48147 0.0687,-0.82669 0.55756,-0.55757 1.29269,-0.2478 1.18605,0.49977 -0.10158,0.71213 -0.78692,0.89068 -1.2548,0.32692 z m -8.31832,-8.7073 c 0,-0.94378 1.51311,-3.74267 2.99376,-5.53772 2.54358,-3.08369 5.51329,-4.93009 11.17607,-6.94864 1.71598,-0.61168 3.90678,-1.5041 4.86845,-1.98315 1.91618,-0.95454 2.54146,-1.07369 2.54146,-0.48427 0,0.51195 -1.08222,1.17201 -6.92446,4.22331 -2.69797,1.40911 -5.60739,3.04264 -6.46538,3.63007 -2.31361,1.58403 -5.33651,4.50063 -6.36993,6.14592 -0.92951,1.47988 -1.81997,1.94688 -1.81997,0.95448 z m -81.37903,-0.1775 c -1.78572,-0.18364 -4.8318,-0.93708 -6.15626,-1.52273 -2.13,-0.94184 -5.28361,-4.14068 -5.28361,-5.35939 0,-0.70919 0.49772,-0.59228 1.95081,0.45826 3.49925,2.52983 8.16584,4.00216 13.28755,4.19227 3.75157,0.13925 5.83423,-0.24023 6.72591,-1.22552 0.56893,-0.62866 1.06239,-0.67573 1.27502,-0.1216 0.0924,0.24084 -0.10858,0.6682 -0.49691,1.05653 -1.82924,1.82924 -6.94339,2.97047 -11.30251,2.52218 z m 76.79019,-0.78617 c -0.32507,-0.77799 -0.38035,-1.76436 -0.28782,-5.13493 0.13621,-4.96108 0.67845,-7.12992 2.92814,-11.71189 3.08544,-6.28414 8.29517,-11.78101 16.17837,-17.07007 8.62839,-5.78902 22.07015,-11.06089 30.1914,-11.84109 1.51181,-0.14524 1.64392,-0.11792 1.5591,0.32251 -0.073,0.37892 -0.56219,0.57412 -2.30176,0.9184 -2.84855,0.56376 -7.19602,1.82674 -10.36538,3.01124 -4.27788,1.5988 -13.36298,6.63893 -18.35979,10.18545 -4.76679,3.38327 -11.93658,11.43497 -14.62464,16.42354 -2.59409,4.81417 -4.17156,10.51315 -3.86043,13.94663 0.14946,1.64935 0.11626,1.91318 -0.24073,1.91318 -0.23185,0 -0.59119,-0.42382 -0.81646,-0.96297 z m -24.18107,-4.3781 c -0.26897,-0.70092 0.31397,-1.99011 3.22796,-7.13878 2.93846,-5.19189 3.94239,-6.69891 7.16459,-10.75486 4.43245,-5.57936 7.26543,-8.31767 12.91742,-12.48574 5.77502,-4.2588 13.6081,-7.66825 22.4856,-9.78714 1.71825,-0.41012 7.33605,-1.45743 12.48398,-2.32735 19.49514,-3.2944 25.47287,-4.75138 31.9285,-7.78206 2.52113,-1.18358 3.66033,-2.00505 4.50557,-3.24892 0.70686,-1.04024 1.39548,-1.01324 1.39548,0.0547 0,1.23353 -3.01754,3.79106 -7.20184,6.10394 -2.68597,1.48467 -4.00772,1.79277 -16.97787,3.95754 -15.52035,2.59042 -20.54575,3.72767 -27.94967,6.32503 -7.06367,2.47801 -10.88496,4.27389 -16.14431,7.5873 -6.23105,3.9256 -13.11427,10.01265 -19.11865,16.90726 -1.92801,2.21386 -4.68351,6.45363 -6.49066,9.98691 -1.47601,2.88585 -1.91868,3.40329 -2.2261,2.60215 z m -53.77911,-2.4596 c -8.22348,-0.88828 -19.10539,-5.44166 -21.69451,-9.07774 -1.19301,-1.67542 -0.19904,-1.80762 1.51779,-0.20186 2.42906,2.2719 5.79431,3.88524 10.67368,5.11709 4.94606,1.24869 7.93129,1.61808 12.36301,1.52977 3.87006,-0.0771 3.91147,-0.0719 5.40282,0.68594 1.76305,0.89585 1.86494,1.45814 0.31431,1.73453 -1.69285,0.30175 -6.61992,0.42368 -8.5771,0.21227 z m 9.44353,-2.59552 c -1.96825,-0.57995 -3.0419,-1.13538 -5.30809,-2.746 -2.73941,-1.94695 -5.30542,-5.14258 -5.30542,-6.60721 0,-0.87755 0.87919,-0.62215 1.79917,0.52265 3.20526,3.98852 10.48909,7.51931 15.52378,7.52507 1.09712,0.001 1.69392,0.12324 1.91679,0.39179 0.97714,1.17738 -5.42867,1.85589 -8.62623,0.9137 z m 29.45067,-2.31725 c -0.38717,-0.41447 -1.45785,-1.99126 -2.37928,-3.50396 -5.15151,-8.45719 -6.80907,-10.98824 -9.04548,-13.81224 -5.77271,-7.28941 -11.38124,-11.42086 -18.04455,-13.29227 -2.4205,-0.6798 -3.12421,-1.18777 -2.15872,-1.55826 0.98694,-0.37872 10.14787,2.8076 13.56291,4.7174 4.20561,2.35191 8.10205,7.24022 12.8436,16.11306 2.12001,3.96717 4.88975,8.69843 5.90094,10.07995 1.31252,1.79324 0.76606,2.80371 -0.67942,1.25632 z m -42.5775,-2.38122 c -8.24081,-1.07371 -17.66122,-5.50101 -23.42299,-11.00808 -2.23261,-2.13392 -3.33692,-3.59806 -3.05628,-4.05216 0.30976,-0.5012 0.82788,-0.26226 1.65022,0.76103 1.15422,1.43628 5.82587,4.88119 8.61023,6.34927 4.71991,2.4886 11.52967,4.66193 16.43038,5.24373 1.24646,0.14798 1.61495,0.32458 2.43983,1.16934 1.65919,1.69917 1.0967,2.02522 -2.65139,1.53687 z m 105.14709,-1.93691 c -0.39324,-0.22266 -0.71499,-0.49469 -0.71499,-0.60452 0,-0.41261 0.64747,-0.82369 1.29736,-0.82369 1.11814,0 3.62063,-0.72681 6.44259,-1.87115 2.1451,-0.86987 2.73291,-1.01807 2.98997,-0.75384 0.46667,0.4797 -1.08624,1.74657 -3.83125,3.12557 -2.58684,1.29953 -4.91105,1.64819 -6.18368,0.92763 z m -96.5602,-2.33204 c -1.02097,-0.18531 -2.30796,-0.48332 -2.85996,-0.66226 -3.85947,-1.2511 -7.95586,-4.57882 -9.57466,-7.77799 -1.67079,-3.30191 -1.13895,-5.04049 0.70075,-2.29078 2.67055,3.99154 6.13222,6.63838 11.51023,8.80087 1.57188,0.63205 2.52455,0.84671 3.89995,0.87874 1.47474,0.0343 1.8359,0.12502 1.90389,0.47806 0.1834,0.95214 -2.16417,1.19335 -5.5802,0.57336 z m 101.3476,-2.99921 c -1.60163,-0.72681 -1.28909,-1.13494 1.01838,-1.32984 1.06102,-0.0896 2.45562,-0.30558 3.09911,-0.47993 2.14918,-0.58229 6.35226,-2.34014 8.06051,-3.37113 1.65702,-1.00007 2.2633,-1.05777 1.92779,-0.18346 -0.27617,0.71971 -4.99093,3.68133 -7.67991,4.82422 -2.9044,1.23445 -4.58463,1.37568 -6.42588,0.54014 z m -116.52107,-1.01643 c -6.05915,-1.40558 -12.60659,-4.50274 -17.84775,-8.44259 -3.85576,-2.89843 -8.93193,-8.02954 -8.93193,-9.02861 0,-1.0556 0.66782,-0.63813 3.16773,1.98024 5.27463,5.52458 14.2176,10.47047 22.57197,12.48337 2.79035,0.67231 3.06473,0.79611 4.10988,1.85443 0.61595,0.62372 1.04779,1.25073 0.95964,1.39336 -0.23064,0.37319 -1.78468,0.28055 -4.02954,-0.2402 z m 120.18357,-4.30804 c -1.25167,-0.54403 -1.11329,-1.171 0.26,-1.17799 2.10326,-0.0107 7.21577,-1.33411 10.64751,-2.75616 2.08426,-0.86367 5.11366,-2.75315 6.17329,-3.85036 0.88586,-0.91727 1.84057,-1.23226 1.82694,-0.60277 -0.011,0.50509 -1.62039,2.11835 -3.69512,3.70386 -2.25655,1.72445 -6.14871,3.76973 -8.61009,4.52449 -2.09471,0.64233 -5.31217,0.71977 -6.60253,0.15893 z m -107.57372,-0.52931 c -4.55387,-0.85243 -8.48814,-2.9728 -11.44834,-6.17009 -2.53567,-2.73876 -4.25877,-6.71409 -3.19514,-7.37145 0.31704,-0.19594 0.49131,-0.003 1.74176,1.93202 1.71157,2.64811 6.53393,6.87988 9.98382,8.76112 1.8783,1.02424 4.90722,1.93357 6.46504,1.94089 1.08742,0.005 1.5322,0.62198 0.75022,1.04048 -0.63187,0.33817 -2.00788,0.29559 -4.29736,-0.13297 z m -15.76553,-3.25255 c -7.57443,-2.16205 -16.79062,-7.70755 -22.86561,-13.75855 -2.894,-2.88257 -5.7705,-6.98014 -5.64698,-8.04412 0.12924,-1.1133 0.76896,-0.77592 1.61946,0.85408 1.64401,3.15077 6.23464,7.56552 11.7512,11.30098 2.25485,1.52683 8.14242,4.51417 10.78483,5.4722 1.23041,0.44609 3.25818,1.03421 4.50617,1.30693 3.06995,0.67087 3.83751,1.42724 2.86187,2.82015 -0.48143,0.68735 -0.75674,0.69177 -3.01094,0.0483 z m 128.2624,-2.88567 c -0.60101,-0.17319 -0.83621,-0.38112 -0.77728,-0.68715 0.0648,-0.3363 0.56981,-0.50854 2.16177,-0.73728 2.64285,-0.37975 3.80561,-0.68417 7.0172,-1.83719 4.38108,-1.5729 8.81973,-4.04233 10.37517,-5.7722 0.61449,-0.6834 1.19469,-0.71198 1.19469,-0.0589 0,1.71364 -9.80389,8.18939 -13.78819,9.10751 -1.43012,0.32954 -5.01813,0.32093 -6.18336,-0.0148 z m -132.80519,-6.45413 c -7.85098,-2.71916 -18.11574,-10.43867 -23.59261,-17.74259 -1.53888,-2.05224 -1.85574,-2.86581 -1.17113,-3.00705 0.28727,-0.0593 0.90906,0.5953 1.8964,1.99634 4.23283,6.0064 14.88921,13.31111 23.0259,15.78374 2.4467,0.74351 2.66758,0.89529 3.07099,2.11027 0.22435,0.6757 0.20183,0.91873 -0.11442,1.23498 -0.50568,0.50568 -0.60492,0.49371 -3.11513,-0.37569 z m 139.8379,-1.06616 c -1.32521,-0.26126 -1.62098,-0.42218 -1.62098,-0.88191 0,-0.44445 0.57939,-0.66246 1.76059,-0.66246 4.31385,0 13.62739,-3.56514 17.25565,-6.60532 1.45389,-1.21822 1.77557,-1.38743 2.03754,-1.07177 0.24395,0.29393 0.22876,0.49238 -0.0703,0.91942 -1.25778,1.79574 -6.21189,4.90101 -11.10355,6.95978 -3.67968,1.54868 -5.61578,1.86334 -8.2589,1.34226 z"
           style="fill:#8f8f8f" />
        <path
           inkscape:connector-curvature="0"
           id="path3366"
           d="m 367.7419,498.21202 c -0.16333,-0.30519 -0.35881,-1.23683 -0.43438,-2.07032 -0.11649,-1.28467 -0.0319,-1.73111 0.55552,-2.93176 1.56952,-3.20798 5.81537,-6.7069 11.4362,-9.42434 2.22259,-1.07452 3.02115,-1.24441 3.02115,-0.64271 0,0.11281 -0.84824,0.62876 -1.88498,1.14655 -5.38226,2.68814 -11.83636,10.11519 -11.70271,13.46688 0.0457,1.14574 -0.48972,1.39199 -0.9908,0.4557 z m 12.04285,-0.0301 c -0.53542,-0.67098 -1.04806,-1.91935 -1.20113,-2.92497 -0.61204,-4.02088 5.56416,-11.16757 12.79266,-14.80284 0.76229,-0.38336 1.58128,-0.6594 1.81998,-0.61344 0.76899,0.1481 0.46235,0.79431 -0.5419,1.14199 -1.58259,0.54791 -3.83664,2.17583 -5.78402,4.17735 -3.55302,3.65178 -6.32529,9.25846 -5.95567,12.04479 0.15753,1.18756 0.12684,1.30211 -0.34892,1.30211 -0.28692,0 -0.63836,-0.14625 -0.781,-0.32499 z m -26.84401,-6.54583 c -1.88327,-0.3927 -5.53434,-1.73634 -6.43492,-2.36815 -0.55245,-0.38757 -0.81284,-1.16204 -0.39,-1.15993 0.10725,5.2e-4 0.55451,0.2202 0.99391,0.48815 2.00417,1.22215 5.73016,1.66818 8.74318,1.04664 2.1038,-0.43399 6.19003,-2.49984 10.15227,-5.13262 1.966,-1.30635 4.30597,-2.74449 5.19994,-3.19588 2.62638,-1.32613 6.16128,-2.18093 6.53283,-1.57975 0.24678,0.39931 -0.23632,0.75915 -1.26749,0.94409 -1.87955,0.33709 -4.62699,1.89419 -8.0599,4.56792 -4.00316,3.11786 -7.18055,5.27274 -8.89648,6.03351 -1.55095,0.68761 -4.27544,0.83518 -6.57334,0.35602 z m -10.91987,-6.48226 c -4.05945,-1.44669 -8.97421,-4.5867 -7.1791,-4.5867 0.19844,0 1.10518,0.34704 2.01497,0.77121 2.70367,1.26053 4.67685,1.66378 8.1541,1.66645 3.77283,0.003 7.12616,-0.70635 13.32835,-2.81902 6.62164,-2.25553 11.01561,-3.31421 11.37071,-2.73966 0.2667,0.43154 0.1365,0.49556 -2.11272,1.0387 -2.85848,0.69026 -4.26383,1.2062 -10.60869,3.89475 -3.05997,1.29663 -6.46973,2.58925 -7.57723,2.8725 -2.72833,0.69779 -5.2508,0.66427 -7.39039,-0.0982 z m 42.49981,-3.82239 c -0.55861,-0.90384 2.74766,-2.55477 7.2896,-3.63995 7.73596,-1.84831 11.60373,-3.07981 15.15931,-4.82673 5.67764,-2.78955 9.62338,-5.73979 17.4703,-13.06264 5.36296,-5.00478 7.0371,-6.39133 9.48376,-7.85463 2.12753,-1.27244 6.26399,-3.07025 7.11271,-3.09136 0.19066,-0.005 0.29877,-0.15231 0.24023,-0.32791 -0.16727,-0.50183 -2.30679,-1.03928 -2.96593,-0.74505 -0.74079,0.33068 -0.87093,0.15177 -0.87093,-1.19733 0,-3.31968 -3.08158,-6.32071 -6.48597,-6.31641 -1.5698,0.002 -4.69611,0.67645 -7.88925,1.70204 -5.90928,1.89798 -11.27603,2.88349 -13.81299,2.53651 -2.02439,-0.27687 -2.26927,-0.85642 -0.36811,-0.8712 1.65175,-0.0129 5.45077,-1.01493 10.61654,-2.80036 4.96839,-1.7172 8.65748,-2.3376 11.19916,-1.88338 3.59301,0.64211 6.04844,2.41454 7.62709,5.50555 0.80529,1.57676 0.94519,1.70657 2.82391,2.62027 1.92612,0.93677 2.83618,1.80844 2.2599,2.1646 -0.14908,0.0921 -1.18643,0.38616 -2.30522,0.65337 -5.20563,1.24333 -7.11026,2.62093 -16.01491,11.58341 -7.45474,7.50316 -9.2367,9.1353 -11.95986,10.95434 -5.10888,3.41269 -10.48542,5.15269 -18.30913,5.92536 -5.33886,0.52726 -7.92375,1.20842 -8.85809,2.33424 -0.5385,0.64884 -1.24266,0.96 -1.44212,0.63726 z m -50.90637,-5.61759 c -0.37951,-0.37951 -0.14243,-1.58432 0.41166,-2.09198 2.17698,-1.99456 6.58079,-2.81668 16.4448,-3.06995 10.26804,-0.26364 15.12697,-0.97672 20.09568,-2.94915 5.32657,-2.11448 8.13508,-3.96872 11.76414,-7.7669 2.65695,-2.78078 4.95674,-6.10932 5.57125,-8.0634 0.14615,-0.46475 0.35776,-0.84499 0.47026,-0.84499 0.48476,0 0.45817,0.8803 -0.0763,2.52573 -2.54934,7.84845 -9.97629,14.69627 -18.82295,17.35523 -5.21295,1.56681 -12.5437,2.22959 -19.30765,1.74563 -5.80605,-0.41541 -8.27982,-0.39072 -10.69026,0.10672 -2.79675,0.57716 -4.61767,1.47869 -4.95788,2.4546 -0.26291,0.7542 -0.55402,0.94719 -0.90275,0.59846 z m 36.09623,-10.74534 c -5.06519,-0.7974 -9.28697,-3.97044 -17.12515,-12.87105 -2.01487,-2.28797 -4.66626,-5.16421 -5.89197,-6.39163 -3.09142,-3.09573 -7.01118,-5.79921 -9.15749,-6.31597 -0.76644,-0.18454 -0.99806,-0.94224 -0.28803,-0.94224 0.68564,0 4.0302,1.05159 5.16297,1.62332 4.11108,2.07497 9.67626,6.89472 13.88654,12.02652 2.62524,3.19983 7.07962,7.69824 9.12318,9.21336 2.18973,1.62348 3.69168,2.37625 5.45994,2.73648 0.94682,0.19288 1.42998,0.41948 1.42998,0.67066 0,0.45419 -0.81034,0.53228 -2.59997,0.25055 z m 39.12954,-18.81359 c -7.27754,-2.59082 -14.57736,-9.20275 -20.87279,-18.90587 -2.16373,-3.33494 -4.01684,-6.65101 -6.67306,-11.94115 -7.59878,-15.13379 -11.34235,-19.77884 -18.24138,-22.63405 -2.62512,-1.08642 -8.51398,-2.38346 -13.49207,-2.97167 -4.3382,-0.5126 -14.17883,-2.05915 -16.70677,-2.62562 -5.7455,-1.28749 -8.49874,-2.23082 -13.58287,-4.65383 -2.97314,-1.41695 -5.08492,-2.63231 -14.28638,-8.22206 -4.85001,-2.94631 -11.43501,-4.59676 -14.02003,-3.51395 -1.31756,0.5519 -1.51591,0.53274 -1.41631,-0.13679 0.13285,-0.89309 3.03216,-2.30147 4.73782,-2.30147 2.60607,0 4.30302,0.72733 14.6639,6.28515 6.31716,3.38866 9.14321,4.74383 13.57097,6.50763 10.04346,4.00084 16.5368,5.70068 29.54372,7.73402 13.85598,2.16608 19.55717,4.55345 23.53446,9.85505 1.17299,1.56356 2.86669,4.8483 9.13569,17.71758 4.83605,9.92764 9.8405,17.30103 15.48163,22.81011 4.33173,4.23033 7.86309,6.32864 11.40093,6.77438 0.80827,0.10183 1.51824,0.3314 1.5777,0.51015 0.18396,0.55298 -2.49,0.37639 -4.35516,-0.28761 z m 24.26366,-0.84362 c -0.22165,-0.57762 0.47077,-0.96018 0.9218,-0.5093 0.19567,0.1956 0.27651,0.48387 0.17965,0.64059 -0.26156,0.42322 -0.91872,0.34489 -1.10145,-0.13129 z m -8.29026,-8.24266 c -0.20566,-0.53593 1.10266,-3.23164 2.36397,-4.87081 2.72009,-3.53497 6.10516,-5.74293 11.95226,-7.79607 1.71598,-0.60254 3.92429,-1.49999 4.90735,-1.99432 1.14186,-0.57419 1.87753,-0.80866 2.03697,-0.64922 0.40288,0.40289 -1.08659,1.35151 -6.69525,4.26411 -2.86598,1.48832 -5.77451,3.09383 -6.46341,3.5678 -2.3938,1.64698 -5.02657,4.1576 -6.27328,5.98221 -1.264,1.84994 -1.59041,2.11703 -1.82861,1.4963 z m -84.83469,-1.09495 c -3.68773,-0.95282 -5.70211,-2.28846 -7.36918,-4.88614 -1.11503,-1.73749 -0.68201,-1.97183 1.2282,-0.66467 3.58772,2.45508 8.41469,4.0308 13.18454,4.30397 3.21743,0.18426 5.67785,-0.31157 6.97902,-1.40643 0.65859,-0.55417 0.77958,-0.58253 0.92035,-0.21571 0.38549,1.00459 -2.04259,2.46611 -5.17034,3.11217 -2.9736,0.61421 -6.8251,0.51837 -9.77259,-0.24319 z m 80.2453,0.069 c -0.23444,-0.41044 -0.33021,-1.78748 -0.32095,-4.61494 0.0112,-3.41649 0.10693,-4.36637 0.62888,-6.23993 2.12079,-7.61261 5.65751,-12.74038 13.26776,-19.23646 7.53214,-6.42941 19.97523,-12.42905 30.68547,-14.7955 4.51334,-0.99723 5.86961,-1.18703 6.07759,-0.8505 0.24838,0.40188 -0.16444,0.56371 -2.82391,1.107 -2.57171,0.52537 -8.91251,2.4811 -11.31942,3.49132 -4.00708,1.68183 -12.95292,6.81156 -16.7698,9.61614 -5.38695,3.95824 -11.59513,10.82958 -14.52736,16.07917 -2.83275,5.0715 -4.6283,11.86653 -3.97784,15.05371 0.16002,0.78407 0.1221,0.97499 -0.19365,0.97499 -0.21594,0 -0.54299,-0.26325 -0.72677,-0.585 z m -24.38386,-4.58225 c 0,-1.21039 5.36435,-10.83284 8.13507,-14.59252 5.29208,-7.18097 9.08948,-11.02344 15.5993,-15.78441 3.14789,-2.30221 5.92406,-3.85003 9.98687,-5.56805 6.76254,-2.85965 11.27634,-4.06262 22.30809,-5.94535 12.57194,-2.14558 13.63787,-2.33566 17.67979,-3.15258 10.2708,-2.07585 17.90198,-4.92594 20.60653,-7.69611 0.75226,-0.77051 1.48372,-1.32924 1.62547,-1.24163 0.58683,0.36268 0.16676,1.17352 -1.37491,2.65391 -2.70965,2.60194 -6.38316,4.69195 -9.7699,5.55852 -1.09301,0.27966 -6.90124,1.33091 -12.90717,2.33609 -17.75123,2.97095 -25.45466,4.95476 -34.68099,8.93114 -5.37708,2.31743 -12.43647,6.69648 -16.81125,10.4283 -9.2671,7.90509 -14.68563,14.35907 -18.2649,21.7552 -0.84464,1.74534 -1.36252,2.52817 -1.677,2.53497 -0.25025,0.005 -0.455,-0.0925 -0.455,-0.21748 z m -54.46935,-2.53249 c -7.65732,-1.11511 -15.91322,-4.42979 -19.73648,-7.92404 -0.7993,-0.73051 -1.45327,-1.55046 -1.45327,-1.82211 0,-0.27164 0.0713,-0.4939 0.15855,-0.4939 0.0872,0 0.7704,0.55574 1.51823,1.23498 1.50406,1.36612 4.41353,3.06759 6.7008,3.91864 1.84239,0.68552 6.1672,1.79358 8.84364,2.26582 2.85884,0.50444 8.13663,0.73077 9.68846,0.41549 1.21851,-0.24756 1.40527,-0.20997 2.97976,0.59982 1.86985,0.96169 2.13418,1.29094 1.25582,1.56426 -0.68802,0.2141 -8.793,0.41033 -9.95551,0.24104 z m 11.06516,-2.30763 c -2.17114,-0.49282 -4.03713,-1.41959 -6.34388,-3.15081 -2.9667,-2.2265 -5.66879,-5.88807 -4.90719,-6.64968 0.21446,-0.21445 0.7892,0.21587 2.18835,1.63848 3.93186,3.99776 9.21117,6.47926 14.67848,6.89951 2.38747,0.18352 2.68674,0.51105 0.98469,1.0777 -1.58283,0.52695 -4.70761,0.61444 -6.60045,0.1848 z m 27.95278,-3.51534 c -0.63277,-0.85957 -2.52954,-3.87228 -4.21502,-6.69492 -4.73236,-7.92516 -8.891,-13.1391 -13.63098,-17.09 -3.63913,-3.03333 -6.65226,-4.63419 -11.18603,-5.94309 -2.11154,-0.60961 -2.7125,-1.00097 -1.97286,-1.2848 0.87304,-0.33501 9.50919,2.59243 12.88114,4.36638 4.57132,2.40494 7.72003,6.10292 12.39695,14.55944 4.16017,7.52217 5.91487,10.53847 6.89443,11.85137 0.55494,0.74378 0.94694,1.45272 0.87112,1.5754 -0.33061,0.53493 -0.96609,0.11732 -2.03875,-1.33978 z m -43.43789,-1.68062 c -7.15288,-1.32278 -13.24301,-4.01429 -19.31823,-8.53763 -2.29174,-1.70632 -5.51147,-5.09554 -5.51147,-5.80159 0,-0.77434 0.5428,-0.47674 2.35826,1.29299 2.26565,2.20857 6.25967,4.93415 9.35613,6.38476 4.83163,2.2635 12.30212,4.445 15.22174,4.445 0.71908,0 1.09796,0.2046 1.80554,0.97499 0.49252,0.53624 0.89605,1.12124 0.89673,1.29999 0.002,0.42372 -2.35618,0.39504 -4.8087,-0.0585 z m 107.05373,-1.57164 c -1.41812,-0.60372 -1.048,-1.00587 1.38702,-1.5071 1.22761,-0.25269 3.39444,-0.92254 4.81517,-1.48856 1.42073,-0.56602 2.7563,-1.02913 2.96792,-1.02913 0.90812,0 0.24764,0.82853 -1.55726,1.95347 -3.25922,2.03138 -5.97253,2.76962 -7.61285,2.07132 z m -97.95384,-2.62542 c -4.97689,-1.05986 -9.52618,-4.46063 -11.4997,-8.59649 -1.2425,-2.60385 -0.95306,-4.17048 0.39673,-2.1474 2.3598,3.53686 5.6556,6.36499 9.54299,8.18885 2.98008,1.39817 4.80336,1.93566 6.56618,1.93566 1.19491,0 1.38902,0.0672 1.31487,0.455 -0.0738,0.38603 -0.42152,0.46234 -2.29404,0.50347 -1.21387,0.0267 -3.02604,-0.12593 -4.02703,-0.33909 z m 102.99122,-2.5458 c -1.01672,-0.37807 -1.65263,-0.83305 -1.44509,-1.03393 0.062,-0.06 1.22415,-0.24332 2.58263,-0.4074 1.65784,-0.20025 3.20722,-0.59325 4.71218,-1.19526 1.23322,-0.49331 2.34961,-0.89692 2.48088,-0.89692 0.13127,0 1.27041,-0.59159 2.53142,-1.31464 2.26217,-1.2971 2.70166,-1.41791 2.41196,-0.66298 -0.25036,0.65245 -4.71263,3.48448 -7.25472,4.6043 -2.72967,1.20246 -4.50498,1.46992 -6.01926,0.90683 z M 333.6526,413.72763 c -6.10417,-0.89544 -13.74782,-4.36693 -19.98524,-9.07662 -3.95123,-2.98346 -8.8723,-8.13702 -8.43916,-8.83786 0.29113,-0.47106 0.79057,-0.28266 1.2321,0.46479 0.81966,1.38758 4.76891,4.89097 7.75538,6.87981 5.17753,3.448 10.79679,5.98153 16.60036,7.48454 2.66519,0.69023 3.13184,0.89728 4.02277,1.78489 0.55431,0.55224 0.92765,1.13382 0.82964,1.2924 -0.098,0.15858 -0.25903,0.27406 -0.35784,0.25662 -0.0988,-0.0174 -0.84491,-0.12929 -1.65801,-0.24857 z m 119.1456,-4.42251 c -2.03894,-0.39999 -2.12296,-1.27714 -0.12234,-1.27714 4.51931,0 13.2626,-3.4441 16.64257,-6.55573 1.20561,-1.10989 1.40091,-1.18196 1.40091,-0.51696 0,1.07743 -4.43716,4.46522 -8.4499,6.45154 -3.9089,1.93492 -6.5679,2.46785 -9.47124,1.89829 z m -108.95735,-0.88753 c -3.48579,-0.7262 -5.90948,-1.87841 -8.91007,-4.23581 -2.51899,-1.97903 -4.92132,-5.58775 -5.30863,-7.97448 -0.12651,-0.77955 -0.0748,-0.91917 0.34029,-0.91917 0.31655,0 0.71409,0.42342 1.12531,1.19857 1.43533,2.70564 6.6098,7.38111 10.43335,9.42722 2.13732,1.14375 3.43189,1.54742 5.80061,1.80875 1.16127,0.12811 1.58908,0.2803 1.58908,0.5653 0,0.53066 -2.80116,0.60227 -5.06994,0.12962 z m -16.92999,-3.75356 c -6.96381,-2.34342 -14.534,-6.97693 -20.22874,-12.38149 -3.46258,-3.28614 -6.79069,-7.8758 -6.41705,-8.84948 0.28543,-0.74384 0.82745,-0.3139 1.58046,1.25366 1.47096,3.06217 7.66345,8.74958 13.20637,12.12923 4.60539,2.80801 9.95952,5.07558 13.88222,5.87938 2.5224,0.51687 3.41231,1.21734 2.91981,2.29826 -0.43854,0.96248 -1.26785,0.90719 -4.94307,-0.32956 z m 130.56796,-2.18191 c -1.59722,-0.42208 -1.63978,-0.88074 -0.0999,-1.07657 5.99295,-0.76213 13.75967,-3.88119 17.59814,-7.06728 1.59384,-1.32295 2.33008,-1.48596 1.74113,-0.38549 -0.66155,1.23612 -6.69081,5.49867 -10.0288,7.09014 -3.57283,1.70343 -6.48734,2.15883 -9.21057,1.4392 z m -133.65773,-6.65578 c -6.31458,-2.31647 -13.58407,-7.30916 -19.38049,-13.31053 -2.96865,-3.07362 -5.31922,-6.08979 -5.31922,-6.82547 0,-0.82439 0.73795,-0.40303 1.57288,0.8981 1.40849,2.19494 2.68391,3.58865 5.62772,6.14962 5.43463,4.72788 11.78045,8.4426 17.72141,10.37377 2.74705,0.89296 2.89001,0.9753 3.1709,1.82643 0.60832,1.84322 -0.2075,2.05674 -3.3932,0.88808 z m 139.74833,-0.98635 c -1.36279,-0.33497 -1.3972,-1.10886 -0.0496,-1.11664 4.64204,-0.0268 14.55582,-3.76129 17.90111,-6.74328 1.58138,-1.40964 2.03831,-1.59393 2.03831,-0.82209 0,1.53366 -7.88236,6.39373 -13.30569,8.20397 -1.92753,0.64339 -5.00298,0.86668 -6.58408,0.47804 z"
           style="fill:#6f6f6f" />
        <path
           inkscape:connector-curvature="0"
           id="path3364"
           d="m 367.74272,497.80999 c -0.64053,-1.68474 -0.59963,-2.86852 0.1522,-4.40521 0.92555,-1.89176 3.75782,-4.87355 6.1711,-6.49689 2.14599,-1.44354 7.0246,-4.0008 7.63252,-4.0008 0.65517,0 0.26539,0.59624 -0.56438,0.86333 -2.29836,0.73981 -7.9292,5.53777 -10.14768,8.64668 -1.59493,2.23509 -2.5409,4.37996 -2.35084,5.33024 0.20028,1.00137 -0.51688,1.05168 -0.89292,0.0627 z m 12.16364,0.23873 c -2.29492,-2.53585 -1.18249,-6.71569 2.94891,-11.08022 1.15426,-1.21941 2.88134,-2.79732 3.83794,-3.50648 2.30836,-1.71126 6.28044,-3.78551 6.61272,-3.45323 0.34238,0.34238 0.0122,0.81832 -0.56765,0.81832 -0.75158,0 -4.1699,2.37836 -5.82659,4.05397 -1.90042,1.92211 -4.15939,5.28544 -5.19047,7.72795 -0.61594,1.4591 -0.79696,2.29123 -0.82709,3.80204 -0.0404,2.02708 -0.27835,2.42155 -0.98777,1.63765 z m -26.51483,-6.44265 c -2.47966,-0.46157 -5.95551,-1.77395 -6.89925,-2.60496 -0.86326,-0.76013 -0.40945,-0.81233 0.94131,-0.10828 1.58406,0.82566 4.5696,1.35108 6.53672,1.1504 3.39566,-0.34643 6.42862,-1.71166 12.12348,-5.45718 2.01473,-1.3251 4.3547,-2.75636 5.19993,-3.18059 2.33473,-1.17182 5.92563,-2.08934 6.23268,-1.59252 0.23737,0.38407 0.10948,0.4561 -1.60042,0.90147 -2.2045,0.57421 -4.4317,1.90733 -8.42541,5.04316 -3.56283,2.79751 -6.67066,4.87451 -8.3199,5.5603 -1.42509,0.59257 -3.57814,0.69976 -5.78914,0.2882 z m -11.10718,-6.51519 c -2.10194,-0.71581 -5.99718,-2.66025 -6.98158,-3.48508 -1.15289,-0.966 -0.42659,-1.01463 1.57542,-0.10548 3.00863,1.36627 5.17614,1.74512 9.04264,1.58051 3.73124,-0.15885 7.61879,-1.02371 12.47985,-2.77637 5.64181,-2.03417 11.17986,-3.34432 11.17986,-2.64485 0,0.11685 -0.89146,0.42262 -1.98102,0.67949 -2.46445,0.58099 -4.88578,1.46021 -9.71884,3.52904 -6.19772,2.65298 -7.57668,3.15873 -9.61988,3.52818 -2.76012,0.49908 -3.7648,0.44773 -5.97645,-0.30544 z m 42.37601,-4.11469 c 0,-0.48986 2.30583,-1.76893 4.41995,-2.45178 0.92949,-0.30023 3.21141,-0.89519 5.07094,-1.32214 8.88301,-2.03956 14.72111,-4.50895 20.0587,-8.48438 2.65666,-1.97868 7.39161,-6.03338 9.96994,-8.53761 6.81793,-6.62196 11.03482,-9.51353 15.96352,-10.94633 0.80095,-0.23285 1.45627,-0.53495 1.45627,-0.67134 0,-0.40344 -1.33598,-0.8387 -2.70732,-0.88204 l -1.27735,-0.0404 -0.0665,-1.31528 c -0.0807,-1.59603 -0.77133,-3.00562 -2.10171,-4.28966 -2.53742,-2.44905 -5.01267,-2.4167 -13.6446,0.1783 -6.17442,1.8562 -10.6699,2.55542 -13.18961,2.05148 -1.35658,-0.27132 -0.91106,-0.61674 0.81249,-0.62994 1.68276,-0.0129 4.74455,-0.83427 10.07488,-2.70278 7.1685,-2.51287 11.8404,-2.56747 15.53433,-0.18158 1.49628,0.96645 2.49536,2.18749 3.32526,4.06405 0.58637,1.32588 0.73504,1.46094 2.51666,2.28628 1.96827,0.9118 2.79997,1.6045 2.38945,1.9901 -0.12979,0.12191 -1.21231,0.46513 -2.40561,0.76269 -5.1375,1.28113 -8.26862,3.54867 -15.71366,11.37977 -7.38487,7.76781 -11.09015,10.87255 -15.78631,13.22773 -4.29407,2.15352 -7.67641,3.04936 -13.71928,3.63366 -6.00054,0.58021 -8.80824,1.33607 -10.04573,2.70442 -0.57521,0.63602 -0.9347,0.704 -0.9347,0.17674 z m -51.13315,-5.75931 c -0.2355,-0.61371 0.70529,-1.71142 2.14177,-2.49901 2.22055,-1.21748 8.2102,-2.03064 14.95753,-2.03064 7.02343,0 15.04777,-1.05055 18.73885,-2.45331 5.81271,-2.20906 8.98709,-4.17967 12.56504,-7.80018 2.87293,-2.9071 5.69484,-6.9005 6.02859,-8.53129 0.24068,-1.17597 0.68849,-0.84448 0.49488,0.36633 -0.25954,1.62306 -1.56922,4.57297 -2.99233,6.73985 -1.46871,2.23633 -5.63624,6.38298 -8.08109,8.04061 -6.14928,4.16926 -15.65277,6.07785 -26.90968,5.40427 -2.28797,-0.13691 -5.73943,-0.20212 -7.66991,-0.14491 -2.95511,0.0876 -3.81197,0.21152 -5.42049,0.78414 -2.09003,0.74402 -2.89941,1.31761 -2.89941,2.05474 0,0.58538 -0.73522,0.63888 -0.95375,0.0694 z m 36.71262,-10.29395 c -3.30907,-0.44993 -5.95345,-1.708 -9.37583,-4.46055 -2.04171,-1.64212 -3.93987,-3.61563 -10.04608,-10.4449 -5.92215,-6.62341 -9.45263,-9.45429 -13.58547,-10.89335 -0.35666,-0.12419 -0.41865,-0.25338 -0.21792,-0.45412 0.35548,-0.35548 4.61051,1.03027 6.31665,2.05716 4.87984,2.93707 8.57325,6.29387 13.79934,12.54171 5.22196,6.24289 10.26781,10.30334 13.43267,10.80942 2.3765,0.38002 2.07384,1.17057 -0.32336,0.84463 z m 40.42022,-18.41995 c -4.06688,-0.70693 -9.85721,-4.3669 -14.83786,-9.37877 -4.77673,-4.80666 -8.7294,-10.75567 -13.97704,-21.03633 -3.04324,-5.96201 -6.43825,-12.09122 -7.99278,-14.42983 -1.12427,-1.69134 -3.76597,-4.65062 -5.28334,-5.91851 -0.65916,-0.55077 -1.9033,-1.39946 -2.76478,-1.88596 -3.92738,-2.21796 -7.36265,-3.0148 -21.31341,-4.94387 -17.0513,-2.35781 -22.38583,-4.2734 -36.78956,-13.21088 -5.66643,-3.516 -8.57888,-4.70165 -13.21415,-5.37941 -1.68009,-0.24566 -2.18475,-0.2274 -3.1671,0.1146 -2.20317,0.76704 -2.49617,0.32309 -0.58355,-0.88419 3.63614,-2.29519 5.34838,-1.81343 18.32852,5.15694 8.18915,4.39759 11.54233,5.89249 19.69603,8.78077 6.62379,2.34633 12.81888,3.78571 23.39972,5.43671 11.77156,1.8368 17.29989,3.76463 21.11601,7.36351 2.37094,2.23597 3.72488,4.384 6.9084,10.96022 7.20717,14.88785 7.53073,15.49238 11.67936,21.82109 2.86896,4.37659 5.2373,7.2435 8.83331,10.69285 4.02921,3.86488 7.41694,5.80406 11.07224,6.33788 0.68201,0.0996 1.17235,0.29058 1.08965,0.42441 -0.16925,0.27385 -0.52171,0.27044 -2.19967,-0.0212 z m 22.48974,-1.03545 c -0.21763,-0.35213 0.076,-0.77999 0.53533,-0.77999 0.20606,0 0.37465,0.234 0.37465,0.51999 0,0.53828 -0.62724,0.71749 -0.90998,0.26 z m -8.18991,-8.67754 c 0,-0.73169 1.27921,-3.20211 2.44007,-4.7123 2.56679,-3.33919 6.35204,-5.731 12.36263,-7.81165 1.49206,-0.5165 3.38995,-1.28089 4.21753,-1.69866 1.57749,-0.79631 2.03952,-0.91508 2.03952,-0.52428 0,0.30818 -1.24312,1.02504 -6.88992,3.97315 -2.57396,1.34384 -5.39294,2.92764 -6.26438,3.51956 -2.18346,1.48309 -5.60591,4.75418 -6.60791,6.31565 -0.82468,1.28516 -1.29754,1.62718 -1.29754,0.93853 z m -81.76902,-0.34312 c -3.96957,-0.3563 -7.2662,-1.75009 -9.2353,-3.9046 -2.42378,-2.652 -2.44405,-3.63382 -0.0402,-1.94762 3.55054,2.49056 8.11985,3.92417 13.17545,4.13376 3.70957,0.15379 5.92081,-0.25162 6.94193,-1.27275 0.34079,-0.34079 0.60809,-0.43187 0.77566,-0.26431 0.16756,0.16757 0.0466,0.45312 -0.351,0.82863 -1.95205,1.84358 -6.60322,2.84548 -11.26654,2.42689 z m 77.14592,-0.27423 c -0.10276,-0.25025 -0.18002,-2.56097 -0.17169,-5.13494 l 0.0151,-4.67994 0.96856,-2.85466 c 1.75637,-5.17657 5.26609,-10.77583 8.81579,-14.06433 7.94023,-7.35596 16.78825,-12.57459 27.34849,-16.13036 4.24793,-1.43033 10.56214,-2.96023 12.2175,-2.96023 1.35201,0 1.13723,0.45987 -0.3062,0.65562 -1.69724,0.23018 -5.56413,1.27225 -9.29489,2.50483 -6.23438,2.05975 -17.21829,8.20489 -22.48974,12.58227 -4.49984,3.73665 -9.93438,10.06105 -12.3602,14.38408 -2.70062,4.81272 -4.46342,10.85359 -4.16351,14.26768 0.11173,1.27178 0.0748,1.88498 -0.1134,1.88498 -0.15345,0 -0.36308,-0.20475 -0.46584,-0.455 z m -24.23655,-4.99271 c 0,-0.74526 0.35584,-1.46908 3.32932,-6.77215 5.005,-8.92618 10.88892,-16.07403 17.34171,-21.06686 5.42108,-4.19455 7.91309,-5.6917 12.99857,-7.80926 7.45913,-3.10594 11.03847,-3.99431 26.64968,-6.61428 15.79559,-2.65092 22.8681,-4.37509 28.87947,-7.04039 3.12557,-1.3858 4.81985,-2.48925 5.40695,-3.52141 0.45292,-0.79627 1.33315,-1.01728 1.33315,-0.33473 0,0.59477 -2.67532,3.11912 -4.66532,4.40204 -4.43488,2.85911 -5.2473,3.09025 -18.73554,5.33046 -15.42273,2.56151 -21.73768,3.98406 -28.82367,6.49302 -12.05386,4.26797 -19.60181,8.92312 -29.10495,17.95031 -5.68159,5.39703 -10.35375,11.57065 -13.12079,17.33733 -1.01827,2.12212 -1.48858,2.64215 -1.48858,1.64592 z m -54.73007,-2.36238 c -5.91866,-0.77451 -13.40642,-3.4915 -17.89396,-6.49295 -1.64352,-1.09925 -3.29507,-2.71789 -3.29507,-3.22941 0,-0.33193 0.80771,-0.11765 0.94952,0.2519 0.0843,0.21958 0.8832,0.92015 1.77543,1.55683 5.20462,3.71394 14.28217,6.06517 22.31785,5.78067 3.59028,-0.12712 3.59415,-0.12662 5.00494,0.6375 0.77654,0.42059 1.41189,0.85869 1.41189,0.97357 0,0.62805 -6.8136,0.97428 -10.2706,0.52189 z m 10.66059,-2.44006 c -2.79287,-0.70045 -5.50707,-2.36455 -8.06227,-4.94305 -1.70641,-1.72198 -3.18999,-4.1508 -2.7148,-4.44448 0.15838,-0.0979 1.1699,0.67985 2.28087,1.75369 1.09795,1.06127 2.52277,2.28612 3.16627,2.72189 3.46746,2.34816 8.2114,3.97029 11.63486,3.97839 1.17578,0.003 1.62498,0.0993 1.62498,0.34918 0,0.85467 -5.29605,1.24495 -7.92991,0.58438 z m 29.15768,-2.34324 c -0.57522,-0.62068 -1.10143,-1.45131 -6.26933,-9.89635 -4.35636,-7.11886 -9.13985,-12.61536 -14.45799,-16.61309 -1.94227,-1.46003 -5.80968,-3.31845 -8.43036,-4.05107 -1.14398,-0.31981 -2.22622,-0.62372 -2.40497,-0.67537 -0.47872,-0.13831 -0.39554,-0.63021 0.10657,-0.63021 1.64887,0 10.16377,3.09212 13.21734,4.79977 4.13737,2.31375 7.9482,7.1068 12.61782,15.86999 2.07067,3.8859 4.87476,8.68333 5.87111,10.04471 0.48498,0.66265 0.88177,1.33539 0.88177,1.49499 0,0.48236 -0.5101,0.32762 -1.13196,-0.34337 z m -42.28752,-2.41534 c -2.0953,-0.24334 -6.80427,-1.39647 -9.10788,-2.23035 -5.97265,-2.16201 -12.22004,-6.06333 -15.66072,-9.77968 -1.64737,-1.77935 -2.12898,-2.51734 -1.78254,-2.73145 0.12647,-0.0782 1.03467,0.64598 2.01822,1.6092 3.97729,3.89509 10.15896,7.20311 18.033,9.65007 1.02051,0.31714 4.37824,0.94808 6.40336,1.20324 1.04734,0.13197 1.5138,0.35412 2.1742,1.03548 1.27831,1.31888 0.83844,1.58215 -2.07764,1.24349 z m 104.83642,-1.93748 c -0.96709,-0.48915 -0.54664,-0.78801 1.77565,-1.26212 1.20815,-0.24666 3.41615,-0.93374 4.90668,-1.52687 4.42787,-1.76197 3.83927,-0.46656 -0.87532,1.92644 -1.57387,0.79886 -2.34731,1.03234 -3.60893,1.08945 -0.88317,0.04 -1.8723,-0.0621 -2.19808,-0.2269 z m -96.77652,-2.4267 c -3.87724,-0.67569 -6.61797,-2.07999 -9.41661,-4.82487 -1.98215,-1.94409 -3.45633,-4.34638 -3.64094,-5.93321 -0.10689,-0.91871 0.39524,-0.92774 0.93335,-0.0168 0.87049,1.47363 3.04127,3.89063 4.79434,5.33815 3.1144,2.57156 9.81023,5.39727 11.67838,4.9284 0.81686,-0.20502 1.22725,0.0586 0.83221,0.53461 -0.37861,0.4562 -2.4731,0.44557 -5.18073,-0.0263 z m 101.72379,-2.85446 c -0.46474,-0.20199 -0.84499,-0.46448 -0.84499,-0.58331 0,-0.11882 1.08224,-0.34614 2.40497,-0.50516 2.75915,-0.33171 7.04971,-1.83708 9.91429,-3.4785 1.99806,-1.1449 2.56368,-1.29332 1.82713,-0.47944 -0.93399,1.03205 -4.65995,3.30651 -7.15806,4.36954 -2.74103,1.1664 -4.55678,1.36646 -6.14334,0.67687 z M 331.491,413.20519 c -9.04865,-2.1972 -18.13442,-7.74703 -24.63396,-15.04706 -0.82265,-0.92396 -1.49573,-1.8892 -1.49573,-2.14497 0,-0.25577 0.0473,-0.46504 0.10508,-0.46504 0.0578,0 1.49102,1.38016 3.18496,3.06702 5.67419,5.65048 13.80081,10.08688 22.24741,12.14506 2.51534,0.61292 3.05234,0.83858 3.7772,1.58729 0.46474,0.48003 0.84499,0.9915 0.84499,1.1366 0,0.40167 -1.71639,0.28289 -4.02995,-0.2789 z m 121.97752,-3.91797 c -2.75393,-0.40095 -2.66011,-0.79277 0.28602,-1.19453 2.34065,-0.31919 6.32128,-1.4136 8.88236,-2.44206 2.12922,-0.85503 5.47954,-2.89851 6.50846,-3.96974 0.84355,-0.87823 1.57398,-1.20797 1.57398,-0.71055 0,0.35753 -2.58598,2.68826 -4.41995,3.98368 -2.00288,1.41474 -5.56284,3.23674 -7.3989,3.7868 -1.83424,0.54952 -3.94927,0.76226 -5.43197,0.5464 z m -109.10768,-0.86134 c -6.40528,-1.30651 -11.57982,-5.0582 -13.92557,-10.09644 -0.63727,-1.36873 -0.846,-3.04131 -0.37954,-3.04131 0.14009,0 0.47984,0.43874 0.755,0.97498 1.40094,2.73022 6.15197,7.18321 10.03339,9.40399 2.37109,1.35664 3.54384,1.77917 6.04068,2.17644 1.05935,0.16855 1.86134,0.42003 1.81258,0.56837 -0.13068,0.39754 -2.4199,0.40491 -4.33654,0.014 z m -15.63553,-3.26739 c -7.46193,-2.12994 -16.78618,-7.72458 -22.72866,-13.63742 -2.37137,-2.35954 -5.57528,-6.7698 -5.57528,-7.6745 0,-0.78163 0.49795,-0.87012 0.77632,-0.13796 0.47258,1.24297 2.01323,3.42528 3.67917,5.21146 5.60878,6.01364 16.49812,12.34494 23.75417,13.81118 2.43648,0.49235 2.8981,0.69773 3.11676,1.38668 0.21209,0.66822 -0.28523,1.57504 -0.85093,1.55161 -0.24522,-0.0102 -1.22242,-0.24013 -2.17155,-0.51105 z m 129.68315,-2.6231 c -2.49323,-0.37899 -2.7052,-0.86203 -0.49397,-1.12565 5.9567,-0.71015 14.94017,-4.52278 17.72511,-7.52264 0.70176,-0.75591 1.05967,-0.86231 1.05967,-0.31504 0,1.00759 -6.34392,5.62654 -10.21903,7.44039 -3.09628,1.44929 -5.53246,1.90894 -8.07178,1.52294 z m -134.22594,-6.71671 c -6.45756,-2.23656 -14.66044,-7.88353 -20.23148,-13.92763 -2.48149,-2.69221 -4.82966,-5.71235 -4.82966,-6.21175 0,-0.083 0.15403,-0.15094 0.34227,-0.15094 0.18825,0 0.94788,0.86739 1.68807,1.92753 2.92457,4.18873 10.51632,10.20929 16.81944,13.33848 1.67658,0.83234 5.77632,2.43181 7.6499,2.98452 0.95917,0.28296 1.20158,0.49023 1.461,1.24924 0.31786,0.92997 0.10751,1.58082 -0.49784,1.54041 -0.16124,-0.0108 -1.242,-0.34821 -2.4017,-0.74986 z m 139.56636,-1.08156 c -1.53703,-0.36451 -1.25581,-0.84086 0.62136,-1.05252 5.99969,-0.6765 13.27063,-3.44135 16.92938,-6.43758 1.55443,-1.27295 2.15957,-1.57695 2.15957,-1.08487 0,0.45974 -2.86357,2.83986 -4.85889,4.03857 -2.60182,1.56306 -6.24416,3.32304 -8.40096,4.05933 -1.92245,0.65628 -4.798,0.86896 -6.45046,0.47707 z"
           style="fill:#4e4e4e" />
        <path
           inkscape:connector-curvature="0"
           id="path3362"
           d="m 368.00241,498.09503 c -0.18801,-0.22653 -0.39185,-1.10343 -0.45299,-1.94866 -0.15173,-2.09765 0.66095,-3.70001 3.17851,-6.26703 2.28965,-2.33464 7.1725,-5.47662 10.44408,-6.72047 1.2216,-0.46445 0.60117,0.14806 -0.87001,0.85891 -2.11847,1.02359 -5.82962,4.10307 -8.06136,6.68921 -2.16932,2.51382 -3.8018,5.51537 -3.74995,6.89479 0.0385,1.02347 -0.009,1.07112 -0.48828,0.49325 z m 11.92172,-0.30312 c -0.74414,-0.85309 -1.04902,-1.71171 -1.08138,-3.04534 -0.0665,-2.74078 2.92942,-7.25678 6.89368,-10.39147 2.00443,-1.58498 6.55183,-4.30798 7.19432,-4.30798 0.66491,0 0.25175,0.41954 -0.9611,0.97594 -5.41807,2.48559 -11.26999,10.58286 -11.27335,15.59886 -0.001,1.71507 -0.12846,1.90796 -0.77217,1.16999 z m -25.9434,-6.19874 c -1.96892,-0.3425 -4.25199,-1.065 -5.95386,-1.88416 -1.05814,-0.50932 -1.79652,-0.9685 -1.64083,-1.0204 0.15569,-0.0519 0.55345,0.0799 0.88392,0.29288 1.63933,1.05652 5.77528,1.50048 8.58295,0.92129 2.13818,-0.44107 6.35054,-2.56679 10.15769,-5.12594 1.90616,-1.28131 4.22042,-2.71072 5.14282,-3.17645 1.75452,-0.8859 4.63963,-1.81327 5.64121,-1.81327 0.96863,0 0.65983,0.46179 -0.43217,0.64628 -1.72015,0.29062 -4.68425,1.9732 -8.02681,4.55644 -6.92529,5.3521 -9.04717,6.54334 -11.84003,6.64711 -1.0257,0.0381 -2.15739,0.0184 -2.51489,-0.0438 z m -9.74253,-6.1099 c -1.56679,-0.25405 -3.05661,-0.7987 -5.46729,-1.99873 -2.03413,-1.01259 -4.13229,-2.38175 -3.9418,-2.57224 0.0686,-0.0686 0.94438,0.23508 1.94623,0.67479 2.9046,1.27484 4.77998,1.66083 8.1055,1.66829 3.78587,0.008 6.88324,-0.62908 13.01957,-2.68 6.47867,-2.16533 11.68405,-3.5056 11.3186,-2.91429 -0.084,0.13591 -0.58996,0.32913 -1.12436,0.42939 -1.97259,0.37006 -5.27672,1.55586 -10.34396,3.71227 -5.99795,2.55249 -8.21118,3.34767 -9.94256,3.57222 -0.68052,0.0883 -1.47131,0.1959 -1.75731,0.23919 -0.28599,0.0433 -1.10167,-0.0156 -1.81262,-0.13089 z m 40.68216,-4.78616 c 0.17802,-0.21449 0.42267,-0.38999 0.54367,-0.38999 0.121,0 0.15266,0.1755 0.0704,0.38999 -0.0823,0.2145 -0.32696,0.39 -0.54367,0.39 -0.32076,0 -0.33384,-0.0725 -0.0703,-0.39 z m 5.45994,-2.33818 c 1.07248,-0.3274 3.47095,-0.96166 5.32993,-1.40946 1.85898,-0.44781 4.54995,-1.1846 5.97993,-1.63731 2.9667,-0.93921 8.44747,-3.6266 11.28199,-5.53191 2.1881,-1.47079 8.38228,-6.70145 11.85773,-10.01323 6.42229,-6.11982 9.58688,-8.34672 14.2,-9.99244 2.93297,-1.04632 3.20508,-1.49828 1.2514,-2.07846 -0.74294,-0.22063 -1.62771,-0.33164 -1.96617,-0.24669 -0.57611,0.14459 -0.61574,0.0821 -0.62109,-0.97872 -0.0117,-2.31515 -1.87107,-4.93614 -4.21813,-5.94581 -1.82354,-0.78447 -4.17906,-0.60044 -8.51601,0.66533 -9.06178,2.64474 -12.88372,3.43496 -15.01741,3.10499 l -1.23239,-0.19058 2.22816,-0.45699 c 1.22549,-0.25134 4.37262,-1.18295 6.99362,-2.07023 4.78748,-1.62069 8.95945,-2.60981 11.00782,-2.60981 1.70855,0 4.46487,0.87658 6.03555,1.91945 1.58333,1.05127 2.73368,2.47636 3.39342,4.20385 0.40344,1.0564 0.60466,1.22513 2.63007,2.20549 2.78452,1.34778 2.78558,1.71109 0.007,2.36636 -2.77532,0.65449 -5.37418,1.91578 -7.93103,3.84914 -2.54174,1.92192 -2.41014,1.79523 -8.87285,8.54221 -7.95533,8.30526 -11.62844,11.10932 -17.87978,13.64947 -2.58455,1.0502 -6.93605,1.94947 -11.62858,2.40315 -2.41822,0.23379 -4.67806,0.53203 -5.02187,0.66274 -0.3438,0.13072 -0.76373,0.22575 -0.93317,0.21119 -0.16943,-0.0146 0.56942,-0.29434 1.64191,-0.62173 z m -56.56407,-3.07333 c -0.31422,-0.807 0.32919,-1.69136 1.75688,-2.41483 2.51831,-1.27612 6.69121,-1.86289 14.6738,-2.06336 10.29198,-0.25846 15.47724,-1.0123 20.37362,-2.96195 7.91404,-3.15123 13.0814,-7.61628 16.87101,-14.57802 0.5838,-1.07249 1.06311,-1.87455 1.06512,-1.78237 0.002,0.0922 -0.24075,0.96968 -0.53947,1.94998 -1.49264,4.89839 -5.29725,9.68759 -10.69168,13.45857 -5.48492,3.83423 -14.80902,5.95197 -24.33081,5.52614 -1.96015,-0.0877 -5.2604,-0.23575 -7.33387,-0.32908 -3.05237,-0.1374 -4.19061,-0.084 -5.97993,0.28046 -2.99551,0.61017 -4.89205,1.52432 -5.33608,2.57202 -0.29312,0.69163 -0.37259,0.74312 -0.52859,0.34244 z m 35.56947,-10.60653 c -4.69652,-0.78265 -8.99776,-4.02711 -16.16032,-12.18984 -5.17589,-5.89865 -7.42935,-8.18421 -9.90452,-10.04562 -1.98297,-1.49125 -4.41784,-2.89175 -5.84993,-3.36478 -0.30835,-0.10185 -0.3915,-0.21991 -0.2043,-0.29006 0.63078,-0.23636 4.66739,1.22815 6.38023,2.31479 5.33668,3.38564 8.71617,6.42523 12.83265,11.54198 4.84262,6.01934 10.66042,10.85831 13.87489,11.54047 2.86233,0.60742 2.08669,1.00222 -0.9687,0.49306 z m 39.71437,-18.70468 c -7.69397,-2.66406 -15.60896,-10.10658 -22.24444,-20.91662 -0.96554,-1.57298 -3.10034,-5.49243 -4.744,-8.70989 -7.17874,-14.05238 -10.3159,-18.61627 -15.02249,-21.85449 -3.48621,-2.39858 -9.85712,-4.17222 -18.56834,-5.16937 -3.43116,-0.39276 -10.76025,-1.51426 -13.77984,-2.10861 -10.06214,-1.98053 -15.92347,-4.57407 -28.92771,-12.80005 -5.2139,-3.29811 -11.93224,-5.08663 -14.96696,-3.98442 -1.49994,0.54477 -1.33354,0.028 0.32112,-0.99737 0.88538,-0.54863 1.65967,-0.79563 2.73891,-0.87369 2.69441,-0.1949 4.29941,0.47016 15.04382,6.23371 7.85846,4.21546 11.39559,5.80833 18.7709,8.45309 6.93853,2.48813 15.22672,4.45516 24.43395,5.79891 7.21789,1.05341 13.38499,2.64967 16.73481,4.33153 2.07448,1.04155 4.42079,2.80461 5.55707,4.1757 2.13406,2.57505 3.30545,4.72399 8.1193,14.8951 6.01857,12.71651 11.63008,21.31632 17.73658,27.18184 3.375,3.24181 6.17719,5.14355 8.79732,5.97041 0.78649,0.2482 1.54113,0.55389 1.67698,0.67931 0.36197,0.33418 -0.0441,0.26031 -1.67698,-0.30509 z m 2.67039,0.37605 c 0.0864,-0.0864 0.31064,-0.0956 0.49832,-0.0205 0.20741,0.083 0.14581,0.14461 -0.15708,0.15708 -0.27408,0.0113 -0.42764,-0.0502 -0.34124,-0.13655 z m 21.55266,-1.14291 c 0.13087,-0.3926 0.54897,-0.43306 0.67166,-0.065 0.0596,0.17874 -0.0867,0.32499 -0.325,0.32499 -0.23833,0 -0.39433,-0.117 -0.34666,-0.26 z m -8.36324,-8.3192 c 0,-0.69936 1.69123,-3.69823 2.93292,-5.20064 2.63283,-3.18564 5.63553,-5.06344 11.23691,-7.02726 1.71598,-0.60161 3.80233,-1.43761 4.63633,-1.85777 0.83401,-0.42016 1.64347,-0.72156 1.79881,-0.66978 0.36421,0.1214 -0.95405,0.88603 -6.69513,3.88337 -2.57397,1.34384 -5.38194,2.92403 -6.23993,3.51154 -2.33055,1.59584 -5.34175,4.50489 -6.36992,6.15383 -0.86114,1.38104 -1.29999,1.78841 -1.29999,1.20671 z m -84.10899,-0.90329 c -3.8156,-0.8919 -5.90391,-2.10286 -7.60026,-4.4072 -0.63397,-0.86118 -1.03544,-1.60486 -0.89217,-1.65262 0.14328,-0.0478 0.8257,0.31904 1.5165,0.8151 3.49787,2.5118 9.62465,4.32733 14.60325,4.32733 1.9595,0 4.96405,-0.78116 5.5032,-1.4308 0.3679,-0.44329 0.77931,-0.51343 0.77931,-0.13287 0,0.41598 -1.96604,1.59463 -3.57609,2.14388 -1.98157,0.67599 -8.0388,0.87363 -10.33374,0.33718 z m 79.499,-0.33239 c -0.10997,-0.39325 -0.19477,-2.41147 -0.18843,-4.48495 0.0126,-4.13083 0.41967,-6.19679 1.95414,-9.91792 2.40182,-5.82448 5.71268,-10.0149 12.13828,-15.36293 8.96854,-7.46452 22.36638,-13.35981 35.03547,-15.41623 1.94412,-0.31557 0.72214,0.16029 -1.98421,0.77268 -4.74707,1.07417 -10.0121,2.93476 -14.03037,4.95815 -12.56031,6.3247 -18.85239,11.22466 -25.12839,19.56876 -2.60959,3.46952 -3.77132,5.44635 -5.12655,8.72353 -1.73199,4.18824 -2.70349,9.42065 -2.10137,11.31776 0.10371,0.32677 0.0641,0.55614 -0.096,0.55614 -0.14991,0 -0.36255,-0.32175 -0.47252,-0.71499 z m -24.24966,-4.29449 c 0,-0.89924 4.63939,-9.41581 6.97296,-12.80031 2.38374,-3.45728 6.26528,-8.16219 9.01685,-10.92955 2.98131,-2.99842 9.01458,-7.61045 12.29458,-9.39838 6.01213,-3.27722 15.32644,-6.41304 22.545,-7.59018 15.6542,-2.55273 25.2948,-4.39123 30.02964,-5.72674 7.00373,-1.97548 11.56116,-4.02566 13.33532,-5.99895 1.24991,-1.3902 1.48451,-1.53503 1.48451,-0.91647 0,0.55777 -1.62916,2.2832 -3.44373,3.64724 -1.96521,1.47728 -5.82874,3.38574 -7.86614,3.88563 -0.85799,0.21051 -6.76642,1.25603 -13.12984,2.32337 -6.36343,1.06733 -13.67584,2.42348 -16.24981,3.01365 -5.08139,1.16509 -13.15145,3.75091 -17.52788,5.61632 -7.39477,3.15193 -14.03977,7.51814 -20.81115,13.67431 -6.83172,6.21103 -11.57447,12.11481 -14.7892,18.40963 -1.16841,2.28788 -1.86111,3.32647 -1.86111,2.79043 z m -54.85935,-2.68834 c -3.22937,-0.58861 -6.29439,-1.33939 -8.5799,-2.10167 -4.8808,-1.62789 -10.16515,-4.55831 -11.67021,-6.47168 -0.96382,-1.22531 -0.59146,-1.25889 0.68805,-0.0621 1.38163,1.29236 4.22495,3.0346 6.26422,3.83841 1.86279,0.73424 6.72612,1.9943 9.52789,2.46861 2.43823,0.41277 6.84795,0.60932 9.74988,0.43456 1.47689,-0.0889 1.84811,-0.011 2.94406,0.6179 0.88768,0.5094 1.17312,0.80062 0.97698,0.99677 -0.27946,0.27946 -8.61057,0.51436 -9.90097,0.27917 z m 11.30491,-2.28716 c -0.86071,-0.19676 -1.99209,-0.53622 -2.51417,-0.75436 -1.69646,-0.70883 -4.73324,-2.93579 -6.32503,-4.63834 -1.51104,-1.61619 -2.72681,-3.68766 -2.37235,-4.04211 0.0961,-0.0961 0.75638,0.47789 1.4673,1.27554 3.57045,4.00595 9.31322,6.78993 15.33914,7.43611 l 1.94998,0.20911 -1.03999,0.31491 c -1.65691,0.50173 -4.76496,0.59688 -6.50488,0.19914 z m 28.42147,-2.81987 c -0.87821,-1.1689 -2.95072,-4.41424 -3.47971,-5.4489 -2.06501,-4.03895 -7.74636,-12.04185 -11.06434,-15.58552 -4.17825,-4.46243 -9.46604,-7.81123 -14.71745,-9.32066 -1.17974,-0.33909 -2.14498,-0.72423 -2.14498,-0.85586 0,-0.13162 0.14625,-0.18328 0.325,-0.1148 0.17875,0.0685 1.63235,0.49477 3.23022,0.94727 5.14361,1.45665 9.42779,3.39867 12.24951,5.55272 2.68286,2.04804 6.47894,7.3809 10.12995,14.23088 2.03128,3.81108 4.79152,8.54976 5.75442,9.87901 0.44578,0.61538 0.81052,1.21832 0.81052,1.33986 0,0.4639 -0.48287,0.18827 -1.09314,-0.624 z m -45.33703,-2.65883 c -6.74444,-1.43014 -13.43979,-4.60904 -18.79653,-8.92449 -1.61246,-1.29901 -4.45247,-4.3461 -4.45247,-4.77712 0,-0.40815 0.51699,-0.21207 0.84278,0.31966 0.48634,0.79374 3.65598,3.35078 6.24477,5.03783 5.08628,3.31461 12.9596,6.18046 18.65214,6.78927 1.39456,0.14915 1.83769,0.32059 2.53497,0.98073 0.46474,0.43999 0.84499,0.89403 0.84499,1.00898 0,0.39637 -2.9978,0.17431 -5.87065,-0.43486 z m 108.50442,-1.21832 c -0.39324,-0.14362 -0.71499,-0.34846 -0.71499,-0.45519 0,-0.10672 0.96524,-0.40003 2.14498,-0.65179 1.17973,-0.25175 3.26442,-0.91517 4.63264,-1.47426 2.81271,-1.14935 3.40991,-1.26741 2.75602,-0.54487 -0.7434,0.82144 -4.14398,2.61075 -5.75331,3.02726 -1.75594,0.45444 -2.06449,0.46439 -3.06534,0.0988 z m -98.21382,-2.71768 c -4.82468,-1.04972 -9.36187,-4.53821 -11.28931,-8.67999 -1.12022,-2.40716 -0.8099,-3.17691 0.46635,-1.15681 1.06548,1.68648 3.91293,4.52153 5.85077,5.8253 3.23959,2.17956 7.64925,3.91141 9.95932,3.91141 0.68904,0 1.25279,0.117 1.25279,0.26 0,0.38248 -4.24725,0.27364 -6.23992,-0.15991 z M 449.0096,414.3904 c -0.572,-0.20606 -1.09849,-0.37822 -1.16999,-0.38256 -0.0715,-0.004 0.0455,-0.12131 0.26,-0.25993 0.21449,-0.13862 0.88148,-0.25383 1.48218,-0.25602 2.43218,-0.009 5.81027,-1.1056 10.02268,-3.25397 1.25124,-0.63814 2.27497,-1.07159 2.27497,-0.96321 0,0.43903 -4.97287,3.47088 -7.31149,4.45766 -2.69943,1.13902 -3.84636,1.2748 -5.55835,0.65803 z m -116.77866,-1.17945 c -7.80733,-1.64031 -16.02287,-6.13219 -22.75894,-12.44353 -2.19123,-2.05307 -4.30612,-4.59054 -4.04429,-4.85237 0.0708,-0.0708 1.40099,1.14531 2.95608,2.70235 5.48527,5.49212 13.90126,10.10544 22.36082,12.25735 2.44226,0.62125 3.21584,0.93266 3.82162,1.53844 0.41774,0.41774 0.67954,0.88894 0.58178,1.04712 -0.21358,0.34559 0.003,0.36408 -2.91707,-0.24936 z m 121.1986,-4.01077 c -0.14299,-0.0477 -0.58174,-0.15769 -0.97498,-0.24443 -1.06411,-0.23469 -0.86436,-0.66778 0.30799,-0.66778 2.0507,0 6.85106,-1.26268 10.41688,-2.74004 2.08363,-0.86327 4.90621,-2.61989 6.17492,-3.84293 1.38857,-1.33858 1.46262,-0.86816 0.0865,0.54979 -2.45871,2.53353 -7.92074,5.68087 -11.40557,6.57214 -1.74131,0.44536 -3.872,0.61802 -4.60579,0.37325 z m -109.13182,-0.92097 c -6.14847,-1.03509 -12.06617,-5.52074 -13.97865,-10.59586 -0.90673,-2.40617 -0.52006,-2.94164 0.66454,-0.92028 0.93967,1.60343 4.40395,5.19005 6.71781,6.95505 3.44188,2.62544 7.30026,4.2937 9.95904,4.30601 0.45631,0.002 0.90196,0.12084 0.99033,0.26384 0.1902,0.30775 -2.50524,0.30233 -4.35307,-0.009 z m -17.48665,-3.90862 c -7.4017,-2.49044 -16.40857,-8.2668 -21.68477,-13.90707 -1.71574,-1.83413 -4.70493,-6.13769 -4.70493,-6.77371 0,-0.75391 0.48435,-0.30946 1.19635,1.0978 1.29004,2.5497 4.89634,6.24298 9.26301,9.48639 5.62593,4.17875 13.36565,7.8491 18.53029,8.7875 1.7986,0.3268 2.63993,1.04314 2.19706,1.87066 -0.38875,0.72638 -1.27883,0.62218 -4.79701,-0.56157 z m 131.29842,-1.93033 c -0.143,-0.0477 -0.59555,-0.16116 -1.00567,-0.25213 -1.1194,-0.24829 -0.68996,-0.42992 1.94121,-0.82102 4.76983,-0.70901 12.54089,-3.95482 15.79384,-6.59675 1.93762,-1.57367 2.41413,-1.56824 0.73868,0.008 -3.1365,2.95156 -9.29694,6.59384 -12.51775,7.40094 -1.37546,0.34468 -4.24529,0.49572 -4.95031,0.26054 z m -134.2884,-6.86892 c -6.05703,-2.20648 -13.73577,-7.44244 -19.03914,-12.98234 -2.82471,-2.95071 -5.50238,-6.36521 -5.35003,-6.82225 0.0549,-0.16484 0.91429,0.79262 1.90966,2.12769 4.43204,5.94465 14.4025,12.77229 22.50451,15.41081 2.07358,0.67529 2.77993,1.02469 3.02613,1.4969 0.88903,1.70511 0.0788,1.90937 -3.05113,0.76919 z m 139.68333,-0.9867 c -0.97842,-0.18845 -0.65616,-0.52212 0.65,-0.673 6.03028,-0.69661 13.89633,-3.7198 17.35231,-6.66909 0.94774,-0.80878 1.59922,-1.20404 1.66404,-1.00958 0.37609,1.12827 -8.0595,6.2307 -13.01727,7.87373 -1.91839,0.63577 -4.76668,0.84051 -6.64908,0.47794 z"
           style="fill:#2e2e2e" />
        <path
           inkscape:connector-curvature="0"
           id="path3360"
           d="m 367.95419,497.59691 c -0.56641,-1.77536 -0.51802,-2.48415 0.28021,-4.10489 1.35919,-2.75967 4.55783,-5.67861 8.75606,-7.9904 1.80449,-0.99366 1.70916,-0.86123 -0.79791,1.10847 -3.91641,3.07695 -7.36873,7.70544 -7.904,10.59683 -0.13596,0.7344 -0.20047,0.80965 -0.33436,0.38999 z m 11.79829,-0.27829 c -0.80933,-1.02889 -0.97437,-2.81091 -0.41324,-4.46174 1.14839,-3.3785 5.10231,-7.82735 9.08675,-10.22419 0.8218,-0.49435 0.57265,-0.16517 -1.20661,1.59417 -3.93783,3.89375 -6.56942,8.69317 -6.5822,12.00443 -0.004,0.96488 -0.086,1.75463 -0.18289,1.75498 -0.0969,2.6e-4 -0.41269,-0.30009 -0.70181,-0.66765 z m -26.0407,-5.99141 c -1.07741,-0.19175 -2.38849,-0.49749 -2.9135,-0.67942 -0.88695,-0.30735 -0.75738,-0.33152 1.82893,-0.34114 4.37537,-0.0163 7.29226,-1.22902 14.50471,-6.03064 3.34502,-2.22692 5.42859,-3.2864 7.59625,-3.86265 1.9374,-0.51504 1.99128,-0.43723 0.18231,0.26322 -2.43338,0.94224 -4.85041,2.55096 -9.22989,6.14317 -1.64309,1.34773 -4.71069,3.2944 -6.31438,4.00705 -1.7847,0.79308 -3.27089,0.92461 -5.65443,0.50041 z m -10.39092,-6.18459 c -1.91253,-0.56044 -4.32292,-1.61895 -5.98297,-2.62737 -0.85632,-0.52019 -1.55694,-0.98331 -1.55694,-1.02916 0,-0.0458 0.84824,0.24468 1.88497,0.64562 2.89634,1.1201 4.71114,1.38256 8.45283,1.22247 3.70652,-0.15859 6.52175,-0.77102 11.63194,-2.53039 3.62136,-1.24678 6.43213,-2.10111 6.54416,-1.98908 0.0431,0.0431 -0.76826,0.40663 -1.80294,0.80792 -1.03469,0.40128 -3.87156,1.57911 -6.30414,2.61741 -2.43259,1.03829 -5.1826,2.12245 -6.11114,2.40925 -2.27,0.70113 -5.26283,0.91082 -6.75577,0.47333 z m 51.47938,-7.7268 c 7.78834,-2.01304 10.54004,-3.02384 14.90614,-5.47558 4.30807,-2.41916 8.94405,-6.08303 15.24559,-12.04875 3.80435,-3.60161 6.53279,-5.94755 7.67782,-6.60147 1.0016,-0.57201 1.016,-0.57321 0.39,-0.0325 -0.3575,0.30878 -1.11799,0.9132 -1.68998,1.34318 -0.572,0.42997 -2.3631,2.20712 -3.98024,3.94922 -4.40577,4.74622 -10.35302,10.53594 -12.37167,12.04397 -5.55214,4.14771 -11.37014,6.43636 -18.06023,7.10442 -3.7886,0.37832 -4.37256,0.30042 -2.11743,-0.28246 z m -60.93778,-2.2577 c -0.32451,-0.52506 0.4327,-1.4282 1.82072,-2.17159 2.25282,-1.20656 8.69387,-2.02089 16.08758,-2.03392 4.19837,-0.007 10.07469,-0.57284 13.59672,-1.30832 5.46195,-1.1406 12.14905,-4.48246 15.87592,-7.93394 1.79595,-1.66325 4.47058,-4.97633 5.61852,-6.95967 0.89707,-1.54992 1.09831,-1.43893 0.43629,0.24063 -2.04018,5.17599 -7.42915,10.69957 -13.16772,13.49663 -4.62469,2.25413 -9.16359,3.3172 -15.85981,3.71457 -2.00198,0.1188 -5.21944,0.12056 -7.14992,0.004 -6.0305,-0.36438 -10.34363,-0.30961 -12.34985,0.15682 -2.3794,0.5532 -4.35248,1.62892 -4.55122,2.48132 -0.10583,0.45395 -0.21257,0.54763 -0.35723,0.31356 z m 34.65196,-10.82721 c -3.04009,-0.83847 -6.17881,-2.7673 -9.27648,-5.70065 -1.07616,-1.01907 -4.20426,-4.376 -6.95134,-7.45983 -5.59261,-6.2782 -7.30862,-7.91163 -10.67102,-10.15758 -2.40356,-1.60547 -2.13931,-1.87429 0.53529,-0.54454 4.38337,2.17931 9.36565,6.49351 14.21445,12.30844 4.56524,5.47486 9.36024,9.82346 12.04785,10.92622 2.41885,0.99248 2.37562,0.96956 1.81737,0.96349 -0.286,-0.003 -1.05825,-0.15411 -1.71612,-0.33555 z m 73.34526,-15.74342 c 0,-0.59524 0.0976,-0.6252 0.80437,-0.24695 0.59848,0.3203 0.42393,0.76695 -0.29972,0.76695 -0.33132,0 -0.50465,-0.1786 -0.50465,-0.52 z m -1.42998,-1.03998 c -0.286,-0.1229 -0.93647,-0.23168 -1.44549,-0.24173 -0.91895,-0.0181 -0.92738,-0.0288 -1.19421,-1.51325 -0.1478,-0.82224 -0.35791,-1.72898 -0.46692,-2.01498 -0.109,-0.286 0.0448,-0.17128 0.34173,0.25492 0.29695,0.42619 0.61179,1.10211 0.69962,1.50204 0.12198,0.55535 0.50766,0.90679 1.63248,1.48756 1.35875,0.70155 1.64151,1.04484 0.43279,0.52544 z m -27.16968,-4.286 c 1.64448,-0.48062 4.33545,-1.34808 5.97993,-1.9277 4.9659,-1.75029 9.83146,-2.50539 11.95986,-1.85608 0.88948,0.27135 0.32532,0.45206 -1.94998,0.62459 -1.07738,0.0817 -3.83559,0.72824 -6.75992,1.58457 -5.17885,1.51652 -9.63363,2.49174 -11.25806,2.46457 -0.73491,-0.0123 -0.25648,-0.22223 2.02817,-0.88995 z m -10.64601,-0.79218 c -7.68773,-5.26516 -13.85534,-13.25765 -20.54447,-26.62318 -3.29272,-6.57916 -7.18626,-13.3832 -9.07067,-15.85116 -3.71912,-4.87084 -8.22589,-7.72506 -14.34525,-9.08513 -3.11147,-0.69155 -5.78007,-1.12613 -13.90278,-2.26406 -16.76603,-2.34879 -22.20219,-4.18773 -34.31959,-11.60959 -6.17241,-3.78059 -7.16894,-4.34325 -9.22989,-5.21141 -3.61926,-1.52459 -8.10364,-2.25718 -10.26988,-1.67773 -0.73769,0.19732 -0.72359,0.16953 0.26,-0.51247 0.81921,-0.56803 1.40588,-0.74236 2.7636,-0.8212 2.44223,-0.14182 4.00101,0.39097 9.16453,3.13242 8.91762,4.73461 15.4453,7.97115 18.7515,9.29733 10.15527,4.07346 17.2055,5.94176 29.89965,7.92336 14.91598,2.32843 20.0416,4.61371 24.2266,10.80156 0.99034,1.46431 4.15739,7.54607 5.28029,10.13988 1.16343,2.68745 4.8507,10.06391 6.36826,12.73985 2.38486,4.20526 6.53896,10.28112 8.88807,12.99985 2.06394,2.38868 4.64766,4.93207 7.23616,7.12321 1.15112,0.97443 0.73595,0.79432 -1.15613,-0.50153 z m -59.68315,-6.35847 c -4.27334,-0.5085 -7.39061,-1.92595 -9.14207,-4.15696 -1.36217,-1.73514 -1.43478,-2.12204 -0.22508,-1.19936 1.44778,1.10427 5.5523,2.95308 7.80717,3.51659 3.68076,0.91985 7.86894,1.08882 10.91987,0.44053 0.63111,-0.1341 0.56737,-0.0637 -0.33388,0.36884 -1.2575,0.60351 -4.85692,1.30435 -6.42604,1.25121 -0.57199,-0.0194 -1.74198,-0.11875 -2.59997,-0.22085 z m 82.67853,-0.26321 c 0.54527,-1.80499 2.51029,-4.51109 4.61446,-6.35477 1.74795,-1.53156 5.2088,-3.31837 9.15742,-4.72791 1.71134,-0.6109 3.15175,-1.0705 3.20093,-1.02133 0.0492,0.0492 -1.46802,0.87785 -3.37152,1.84151 -6.19311,3.13528 -10.26165,6.14554 -12.64049,9.35251 -0.70124,0.94534 -1.07979,1.30388 -0.9608,0.90999 z m -5.20521,-5.19994 c 0.0752,-3.38899 0.19231,-4.36509 0.73653,-6.13705 1.7249,-5.61617 4.99057,-10.97466 8.9666,-14.71291 6.36674,-5.98599 12.40928,-9.96657 20.85226,-13.7366 3.15872,-1.41046 10.00709,-3.77289 11.64087,-4.01567 0.53294,-0.0792 -0.552,0.37672 -2.41098,1.01313 -5.49557,1.88138 -14.60852,6.74598 -20.73653,11.06941 -1.31745,0.92949 -3.91811,3.2112 -5.77924,5.07047 -7.84303,7.83518 -12.07351,15.49343 -13.14135,23.78919 -0.1618,1.25694 -0.19464,0.65735 -0.12816,-2.33997 z m -23.78396,-0.35958 c 0,-0.27902 0.77359,-1.7204 0.92334,-1.7204 0.0715,0 -0.0634,0.38025 -0.29974,0.84499 -0.48261,0.94896 -0.6236,1.14688 -0.6236,0.87541 z m -53.81936,-1.72224 c -5.01307,-0.37224 -10.33995,-1.89608 -15.50712,-4.43607 -1.73649,-0.8536 -3.27738,-1.69673 -3.42419,-1.87363 -0.14681,-0.17689 0.86446,0.234 2.24728,0.9131 2.71703,1.33434 6.80789,2.54115 11.3541,3.34948 2.19944,0.39107 3.85074,0.49605 7.14991,0.45454 4.18289,-0.0526 4.31825,-0.0373 5.4239,0.61248 l 1.13394,0.66645 -1.00395,0.14702 c -2.06882,0.30297 -4.72843,0.36306 -7.37387,0.16663 z m 9.29752,-2.4668 c -3.36907,-0.85352 -7.45037,-3.74473 -9.54434,-6.76125 -1.47552,-2.12559 -1.13121,-2.26278 0.812,-0.32353 2.04477,2.04061 5.02603,4.04688 7.49614,5.0446 2.16658,0.87513 5.3645,1.64018 6.87551,1.64486 0.9607,0.003 1.2121,0.0789 0.99162,0.29935 -0.46688,0.46688 -4.91285,0.53123 -6.63093,0.096 z m 47.70092,-1.69131 c 0.35653,-0.64349 1.08998,-1.97794 1.6299,-2.96543 1.27938,-2.33997 5.66878,-8.14346 8.76928,-11.5944 3.08252,-3.43092 8.04885,-7.59816 12.16143,-10.20463 5.95388,-3.77344 15.11693,-7.0713 24.30971,-8.74927 6.69744,-1.22248 10.82237,-1.87695 11.24624,-1.78434 0.24949,0.0545 -0.36537,0.24615 -1.36635,0.42587 -16.30719,2.92773 -30.56755,9.07729 -40.42952,17.43458 -6.23547,5.2841 -12.07903,11.41871 -14.75286,15.48764 -1.93149,2.93927 -2.52482,3.67722 -1.56783,1.94998 z m -18.68167,-0.97499 c -0.28632,-0.39324 -0.62327,-0.89049 -0.7488,-1.10498 -0.18467,-0.31556 -0.15667,-0.33178 0.14667,-0.085 0.37564,0.3056 1.39865,1.90496 1.21849,1.90496 -0.0527,0 -0.33005,-0.32174 -0.61636,-0.71499 z m -41.69673,-2.05341 c -3.84006,-0.57674 -6.44987,-1.19555 -9.48895,-2.24994 -5.67103,-1.96753 -12.83706,-6.47362 -15.74502,-9.90068 -0.34965,-0.41205 0.67741,0.24056 2.28235,1.45026 3.75508,2.83034 6.85944,4.52009 11.35505,6.1807 4.30535,1.59034 5.55621,1.93097 9.21145,2.50841 2.24462,0.3546 2.9118,0.56444 3.49011,1.09769 1.12644,1.03868 0.91146,1.21641 -1.10499,0.91356 z m 39.36165,-1.45655 c -5.53284,-9.29316 -9.408,-14.76413 -12.87816,-18.18139 -2.60769,-2.56795 -5.98981,-5.1213 -8.5437,-6.45012 -1.35848,-0.70683 -2.34577,-1.28921 -2.19397,-1.29416 0.61689,-0.0202 6.25379,2.4027 7.99114,3.43474 3.51801,2.08982 6.73107,5.95046 10.3812,12.47349 1.18327,2.11461 2.89303,5.16047 3.79946,6.76859 2.1249,3.76987 2.4265,4.35384 2.24858,4.35384 -0.0807,0 -0.44272,-0.49724 -0.80455,-1.10499 z m 65.3521,-0.36072 c -0.8811,-0.25639 -0.43564,-0.51616 1.42999,-0.83388 1.03674,-0.17657 3.04867,-0.78091 4.47097,-1.34299 1.4223,-0.56209 2.62598,-0.98199 2.67486,-0.93312 0.15138,0.15138 -2.32036,1.64884 -3.96087,2.39962 -1.48643,0.68027 -3.60022,1.00564 -4.61495,0.71037 z m -97.10294,-2.58621 c -3.78495,-0.63529 -6.90593,-2.26327 -9.68882,-5.05393 -1.41345,-1.41739 -2.67654,-3.54477 -3.00663,-5.06398 -0.16419,-0.75566 -0.14701,-0.74755 0.5507,0.26 1.42012,2.05074 3.28887,4.02144 5.05492,5.33066 2.65495,1.9682 7.8507,4.41922 9.36799,4.41922 0.281,0 0.51091,0.117 0.51091,0.26 0,0.30989 -0.0554,0.30687 -2.78907,-0.15197 z m 101.97789,-2.82861 -0.77999,-0.35715 1.16998,-0.025 c 2.11677,-0.0452 4.57762,-0.7788 9.18848,-2.73933 1.36929,-0.58222 0.97457,-0.0781 -0.6801,0.86862 -4.0719,2.3297 -7.0718,3.0892 -8.89837,2.25282 z m -118.0386,-1.4225 c -4.83927,-1.25123 -8.49392,-2.85234 -13.30825,-5.83036 -3.49496,-2.1619 -7.99421,-5.93435 -10.1537,-8.51352 -0.5307,-0.63383 0.0806,-0.15685 1.37267,1.07098 5.24337,4.98285 14.10463,9.68205 21.85618,11.59051 2.02913,0.49957 3.03597,0.88555 3.54807,1.36016 1.42706,1.32259 0.79257,1.38427 -3.31497,0.32223 z m 121.71058,-3.86993 c -0.34268,-0.14525 0.16048,-0.30526 1.68998,-0.53743 2.88652,-0.43816 8.11552,-2.15531 10.87548,-3.57139 1.94149,-0.99615 2.11536,-1.0472 1.37586,-0.40396 -1.19299,1.03768 -5.33668,3.27462 -7.34343,3.96427 -1.77135,0.60877 -5.68763,0.93434 -6.59789,0.54851 z m -108.09165,-0.71214 c -4.1229,-0.74633 -7.21383,-2.27294 -10.14406,-5.01013 -1.97,-1.84023 -3.44338,-3.89795 -4.03567,-5.63621 -0.52052,-1.52765 -0.30698,-2.09508 0.30403,-0.80787 0.65954,1.38943 4.4498,5.31182 6.96245,7.20516 2.52069,1.8994 5.61417,3.49204 7.75103,3.99053 0.87229,0.2035 1.65209,0.43609 1.73288,0.51688 0.20444,0.20444 -0.2868,0.15507 -2.57066,-0.25836 z m -17.12888,-3.72859 c -7.90476,-2.61604 -16.3677,-7.9465 -21.98094,-13.84493 -2.58822,-2.7197 -2.98978,-3.65764 -0.47884,-1.11843 6.07953,6.14797 17.1677,12.48575 23.89339,13.65697 2.02509,0.35266 3.00319,1.00727 2.56847,1.71898 -0.15832,0.25921 -0.45082,0.49505 -0.64999,0.5241 -0.19917,0.029 -1.70761,-0.39246 -3.35209,-0.93669 z m 130.12844,-2.36608 c -0.28599,-0.1229 -0.38907,-0.23168 -0.22905,-0.24173 3.65923,-0.22983 11.45568,-2.9026 15.21591,-5.21629 0.69462,-0.42741 1.26295,-0.72772 1.26295,-0.66737 0,0.0603 -0.87683,0.75007 -1.9485,1.53271 -2.28094,1.66575 -6.42182,3.84418 -8.43357,4.43673 -1.49629,0.44072 -4.98901,0.53354 -5.86774,0.15595 z m -132.89426,-6.35201 c -5.39147,-1.71344 -14.18702,-7.44609 -18.81393,-12.26231 -1.90257,-1.98041 -1.49109,-1.78801 1.33176,0.6227 4.40003,3.75763 11.57676,7.83374 16.60803,9.43273 2.55678,0.81257 3.11996,1.21667 3.11996,2.23865 0,0.71097 0.0955,0.71232 -2.24582,-0.0318 z m 139.78418,-1.17765 c -1.11931,-0.22298 -0.7597,-0.37783 1.81998,-0.78368 2.50822,-0.3946 5.74347,-1.36078 8.76826,-2.61855 2.60359,-1.08263 5.758,-2.83094 6.31187,-3.49831 0.1908,-0.22991 0.59054,-0.53481 0.8883,-0.67756 0.9208,-0.44145 -0.86309,1.0118 -2.96858,2.41837 -2.75291,1.83907 -7.87172,4.27613 -10.26986,4.88947 -2.08721,0.53382 -2.96522,0.58597 -4.54997,0.27026 z m -4.15995,-5.90234 c 7.17582,-1.36224 13.93589,-2.75358 15.59982,-3.21072 7.19784,-1.97751 12.70193,-4.38156 14.50155,-6.3339 0.60404,-0.65531 1.09826,-1.03033 1.09826,-0.83338 0,0.41513 -2.39957,2.6685 -4.05313,3.80618 -1.95683,1.34633 -5.87794,3.09171 -7.87963,3.50742 -2.75215,0.57155 -20.36102,3.50106 -20.82685,3.46487 -0.2145,-0.0167 0.48749,-0.19688 1.55998,-0.40047 z"
           style="fill:#ff0808;fill-opacity:1" />
      </g>
      <ellipse
         ry="336.63446"
         rx="354.28571"
         cy="554.71094"
         cx="378.57141"
         id="path3388"
         style="opacity:0.37999998;fill:url(#linearGradient4206);fill-opacity:1;stroke:#000000;stroke-width:7.19999981;stroke-miterlimit:4;stroke-dasharray:none;stroke-opacity:1" />
    </g>
  </g>
</svg>
