<?xml version="1.0" encoding="UTF-8" standalone="no"?>
<!-- Created with Inkscape (http://www.inkscape.org/) -->

<svg
   xmlns:dc="http://purl.org/dc/elements/1.1/"
   xmlns:cc="http://creativecommons.org/ns#"
   xmlns:rdf="http://www.w3.org/1999/02/22-rdf-syntax-ns#"
   xmlns:svg="http://www.w3.org/2000/svg"
   xmlns="http://www.w3.org/2000/svg"
   xmlns:xlink="http://www.w3.org/1999/xlink"
   xmlns:sodipodi="http://sodipodi.sourceforge.net/DTD/sodipodi-0.dtd"
   xmlns:inkscape="http://www.inkscape.org/namespaces/inkscape"
   width="210mm"
   height="297mm"
   viewBox="0 0 210 297"
   version="1.1"
   id="svg8"
   inkscape:version="0.92.4 (5da689c313, 2019-01-14)"
   sodipodi:docname="Menu.svg">
  <defs
     id="defs2">
    <linearGradient
       inkscape:collect="always"
       id="linearGradient4538">
      <stop
         style="stop-color:#00ff00;stop-opacity:1;"
         offset="0"
         id="stop4534" />
      <stop
         id="stop4542"
         offset="0.47793028"
         style="stop-color:#ff7f2a;stop-opacity:1" />
      <stop
         style="stop-color:#ff00ff;stop-opacity:1"
         offset="1"
         id="stop4536" />
    </linearGradient>
    <linearGradient
       inkscape:collect="always"
       xlink:href="#linearGradient4538"
       id="linearGradient4540"
       x1="365.59329"
       y1="59.349178"
       x2="0.071466357"
       y2="1077.2697"
       gradientUnits="userSpaceOnUse" />
  </defs>
  <sodipodi:namedview
     id="base"
     pagecolor="#ffffff"
     bordercolor="#666666"
     borderopacity="1.0"
     inkscape:pageopacity="0.0"
     inkscape:pageshadow="2"
     inkscape:zoom="0.98994949"
     inkscape:cx="0.17957935"
     inkscape:cy="867.36262"
     inkscape:document-units="mm"
     inkscape:current-layer="layer1"
     showgrid="false"
     inkscape:window-width="3840"
     inkscape:window-height="2066"
     inkscape:window-x="-11"
     inkscape:window-y="-11"
     inkscape:window-maximized="1" />
  <metadata
     id="metadata5">
    <rdf:RDF>
      <cc:Work
         rdf:about="">
        <dc:format>image/svg+xml</dc:format>
        <dc:type
           rdf:resource="http://purl.org/dc/dcmitype/StillImage" />
        <dc:title></dc:title>
      </cc:Work>
    </rdf:RDF>
  </metadata>
  <g
     inkscape:label="Livello 1"
     inkscape:groupmode="layer"
     id="layer1">
    <path
       style="fill:none;stroke:#000000;stroke-width:0.26458332px;stroke-linecap:butt;stroke-linejoin:miter;stroke-opacity:1"
       d="M 0.80180843,0.33082433 C 196.4465,3.1085712 182.35994,16.723095 137.26491,196.26524 127.4163,235.47666 52.623993,273.54299 -0.26726951,297.53454"
       id="path4528"
       inkscape:connector-curvature="0"
       sodipodi:nodetypes="csc" />
    <path
       style="fill:none;stroke:#000000;stroke-width:0.26458332px;stroke-linecap:butt;stroke-linejoin:miter;stroke-opacity:1"
       d="M 0.80180843,0.33082433 -0.26726951,297.53454"
       id="path4530"
       inkscape:connector-curvature="0" />
    <path
       style="fill:url(#linearGradient4540);fill-opacity:1;stroke-width:1.01015258"
       d="M 0.07146636,1077.2697 C 0.36609705,1052.4073 1.3470819,800.46266 2.2514326,517.39267 3.1557834,234.32267 4.0171465,2.5730233 4.1655728,2.3934531 4.5129219,1.973221 104.14824,3.9670873 147.56084,5.2630278 378.71143,12.163269 490.69513,31.030157 555.66246,74.019534 c 20.05812,13.272607 39.68758,35.059676 49.98084,55.474556 7.6813,15.23452 13.72229,36.25598 16.87566,58.72396 2.14681,15.29623 2.41145,60.14322 0.47308,80.17201 -6.23984,64.47507 -19.30894,130.30269 -52.24352,263.14474 -29.57919,119.30807 -55.13082,218.6413 -58.45581,227.2499 -5.31704,13.76609 -12.9384,28.10678 -22.64607,42.61185 -59.09692,88.30187 -199.53861,184.64786 -424.918313,291.50305 -29.987054,14.2172 -63.3859413,29.5744 -64.31838883,29.5744 -0.48707444,0 -0.6369535,-20.0169 -0.33847181,-45.2043 z"
       id="path4532"
       inkscape:connector-curvature="0"
       transform="scale(0.26458333)" />
  </g>
</svg>
